<svg xmlns="http://www.w3.org/2000/svg" width="154" height="75" viewBox="0 0 154 75">
    <g fill="none" fill-rule="evenodd">
        <path fill="#424242" d="M119.82 55.791l-.215-.03h-.061a.166.166 0 0 1-.054-.008.164.164 0 0 0-.053-.008.538.538 0 0 0-.092.008.538.538 0 0 1-.092.008h-.138l-.015.015h-.03c-.072.03-.113.07-.123.122a.73.73 0 0 1-.16.122.699.699 0 0 0-.162.122c-.05.05-.099.094-.145.13-.046.035-.094.079-.145.129a2.817 2.817 0 0 1-.138.13.973.973 0 0 0-.122.13c-.02.02-.046.048-.077.083a.44.44 0 0 1-.091.084.118.118 0 0 0-.047.039.356.356 0 0 1-.046.053.374.374 0 0 0-.114.1.901.901 0 0 1-.1.113l-.459.473c-.071.082-.14.155-.207.222a2.04 2.04 0 0 1-.221.19 8.27 8.27 0 0 1-.092.061.229.229 0 0 0-.077.092.726.726 0 0 1-.122.1.698.698 0 0 0-.122.098.27.27 0 0 1-.077.076l-.092.061c-.102.082-.199.16-.29.237-.093.076-.194.15-.307.22a.942.942 0 0 1-.198.154.34.34 0 0 0-.154.198c.03.081.069.155.115.221s.12.079.222.038a.41.41 0 0 0 .138-.091.41.41 0 0 1 .138-.092c.08-.05.16-.109.237-.175.076-.066.155-.125.237-.175.082-.072.163-.14.245-.207.081-.066.163-.14.245-.22.02-.021.048-.05.084-.085a.163.163 0 0 1 .114-.053c.03-.03.061-.064.093-.1.03-.035.07-.047.122-.037a.256.256 0 0 0-.054.091.532.532 0 0 1-.053.107l-.108.153-.114.167a1.283 1.283 0 0 0-.1.168 6.55 6.55 0 0 1-.268.427c-.097.143-.19.285-.282.428a4.078 4.078 0 0 1-.368.58 3.152 3.152 0 0 1-.184.259 1.57 1.57 0 0 0-.168.259.728.728 0 0 1-.114.206.704.704 0 0 0-.116.206.648.648 0 0 1-.099.183c-.046.06-.084.117-.115.168-.03.06-.097.16-.199.297a3.486 3.486 0 0 0-.275.435 2.349 2.349 0 0 0-.184.435c-.04.137-.015.226.076.266l.108.046h.061c.04 0 .084.005.13.015.046.01.095.016.145.016a.83.83 0 0 0 .26-.046.138.138 0 0 0 .108-.092 1.17 1.17 0 0 0 .153-.274c.03-.061.063-.117.1-.168.035-.05.068-.101.099-.152l.535-.885a.701.701 0 0 0 .047-.115.193.193 0 0 1 .076-.099c-.02.01-.013-.002.023-.038s.043-.053.023-.053c.02-.02.051-.04.092-.061 0-.03.01-.066.03-.107a1.15 1.15 0 0 1 .153-.252c.062-.076.112-.16.153-.252.061-.112.13-.218.207-.32.076-.102.15-.208.222-.32l.183-.306a.969.969 0 0 1 .107-.144.253.253 0 0 0 .062-.176c.02-.02.048-.046.084-.076a.274.274 0 0 0 .069-.076.428.428 0 0 1 .076-.16c.03-.036.072-.084.122-.146.052-.08.1-.16.146-.236.046-.076.094-.155.145-.236.082-.122.161-.244.238-.367a1.89 1.89 0 0 1 .267-.335l.337-.442a2.27 2.27 0 0 1 .1-.123.47.47 0 0 0 .084-.137.24.24 0 0 1 .092-.099.251.251 0 0 0 .091-.099l.184-.244a.687.687 0 0 1 .169-.214.677.677 0 0 0 .168-.213.476.476 0 0 0 .068-.199.167.167 0 0 0-.068-.152c-.02-.03-.046-.046-.077-.046zm4.545.114a2.15 2.15 0 0 0-.567-.312 1.203 1.203 0 0 0-.321-.046l-.108-.03a1.755 1.755 0 0 0-.52.014l-.183.046c-.051.01-.108.024-.169.039a.74.74 0 0 0-.153.053c-.163.082-.326.165-.49.251-.163.087-.326.18-.489.283a1.233 1.233 0 0 0-.192.167c-.055.062-.12.118-.19.169l-.17.091a.22.22 0 0 0-.045.069.19.19 0 0 1-.046.068l-.107.076c-.408.438-.76.9-1.056 1.389l-.138.259c-.02.06-.053.138-.099.23a.538.538 0 0 0-.069.228c0 .03-.005.053-.015.069a.09.09 0 0 0-.015.053c0 .02-.006.033-.016.038-.01.005-.015.012-.015.023a.284.284 0 0 0-.008.114.296.296 0 0 1-.008.115c-.03.152-.043.292-.038.419.005.127.038.262.1.404.01.03.023.057.038.077.015.02.033.04.054.061.03.04.05.076.06.107.01.03.031.06.062.091.061.051.117.104.169.16.05.056.111.084.183.084 0 .03.028.05.084.061.056.01.12.018.192.023.07.005.142.005.214 0a.461.461 0 0 0 .137-.023 1.44 1.44 0 0 1 .161-.053c.056-.015.11-.033.16-.053l.185-.092c.04-.02.07-.04.091-.061a.911.911 0 0 1 .092-.076l.215-.153c.07-.05.137-.102.198-.153a3.21 3.21 0 0 0 .222-.243c.066-.082.14-.163.222-.245.133-.112.255-.241.367-.389a6.91 6.91 0 0 0 .307-.435c.05-.07.097-.142.137-.213.04-.071.082-.148.122-.229.021-.04.054-.091.1-.152a.286.286 0 0 0 .07-.168c0-.05.011-.112.037-.183s.048-.133.07-.183a.334.334 0 0 1 .09-.107c.031-.02.042-.056.031-.107 0-.02.003-.048.008-.084a.604.604 0 0 0 .008-.084.478.478 0 0 0 .06-.335c-.02-.143-.089-.219-.206-.23-.117-.01-.201.052-.252.184 0 .01-.008.038-.023.084l-.046.137a.674.674 0 0 1-.054.122c-.02.036-.035.054-.045.054 0 .213-.067.42-.2.617-.132.199-.25.384-.351.557a1.64 1.64 0 0 0-.1.168.588.588 0 0 1-.115.152l-.275.351a8.98 8.98 0 0 1-.1.13 1.282 1.282 0 0 1-.1.115l-.06.06-.061.062a.246.246 0 0 1-.093.099.374.374 0 0 0-.107.099c-.173.183-.367.33-.58.442a.843.843 0 0 1-.353.077.592.592 0 0 1-.352-.123.583.583 0 0 1-.222-.274 1.057 1.057 0 0 1-.053-.35c.03-.255.092-.502.183-.74.092-.24.22-.46.383-.664a4.75 4.75 0 0 1 .803-1.023c.332-.325.692-.58 1.079-.763.153-.08.321-.165.505-.25a1.01 1.01 0 0 1 .551-.1.95.95 0 0 1 .191.053.54.54 0 0 0 .192.038c.04 0 .074.013.1.039a.563.563 0 0 0 .083.068c.03.03.054.051.069.061a.21.21 0 0 1 .054.076l.077.184c.03.112.045.213.045.304 0 .092.008.194.023.306a.48.48 0 0 1-.053.305c-.02.05-.038.109-.054.175-.016.066-.033.13-.054.191-.03.082-.066.165-.107.251-.04.087-.081.171-.122.252-.051.143-.107.29-.169.443a2.162 2.162 0 0 1-.229.427l-.23.32a.443.443 0 0 1-.03.054.594.594 0 0 0-.03.053.361.361 0 0 0-.062.091c-.02.041-.04.061-.061.061a.206.206 0 0 0-.069.077.59.59 0 0 1-.069.092l-.153.213-.168.214a.375.375 0 0 1-.115.122.858.858 0 0 0-.13.106c-.163.163-.319.33-.467.504a3.824 3.824 0 0 1-.482.473 4.864 4.864 0 0 1-.482.366 4.87 4.87 0 0 0-.482.366c-.133.102-.263.18-.39.237a4.282 4.282 0 0 0-.406.205c-.234.123-.472.17-.712.146-.24-.026-.43-.161-.573-.405.04-.04.094-.086.16-.137.067-.05.125-.107.176-.168a.39.39 0 0 0 .092-.183c.01-.061-.015-.122-.076-.183a1.505 1.505 0 0 0-.222-.183.598.598 0 0 0-.283-.091c-.143-.011-.243.053-.299.19a1.957 1.957 0 0 0-.114.359c-.02.111-.026.231-.016.358.01.127.046.236.107.328 0 .03.02.069.061.115.041.045.072.083.092.114.02.04.054.076.1.106.046.03.089.061.13.092l.115.084a.638.638 0 0 0 .13.069c.04.02.076.04.107.06.03 0 .061-.002.092-.007a.189.189 0 0 1 .091.008 1.876 1.876 0 0 0 .353-.03.12.12 0 0 1 .076-.008c.03.004.061.007.092.007.03 0 .056-.007.076-.023a.125.125 0 0 1 .077-.022l.26-.077h.015a.273.273 0 0 0 .077-.038.125.125 0 0 1 .077-.023.893.893 0 0 1 .198-.061.864.864 0 0 0 .199-.061l.413-.183a.846.846 0 0 0 .33-.145c.086-.066.18-.135.283-.206l.214-.106a.378.378 0 0 0 .115-.1.252.252 0 0 1 .114-.084l.199-.114a.907.907 0 0 0 .184-.145c.143-.142.286-.28.429-.412.142-.132.275-.275.397-.427.072-.081.146-.158.222-.229.076-.07.156-.148.238-.229a.964.964 0 0 0 .106-.168.326.326 0 0 1 .123-.137.598.598 0 0 0 .1-.13c.025-.046.053-.088.084-.13l.337-.442c.08-.112.152-.22.213-.328.062-.107.123-.216.184-.327.143-.224.26-.448.352-.672a1.9 1.9 0 0 1 .069-.198c.026-.061.049-.127.07-.199.02-.1.037-.2.053-.297a1.76 1.76 0 0 1 .068-.282.862.862 0 0 0 .008-.496 14.871 14.871 0 0 0-.145-.496 1.6 1.6 0 0 0-.413-.496zm7.207-.892a.246.246 0 0 1-.061-.008.24.24 0 0 0-.061-.007c-.02 0-.033-.003-.038-.008-.006-.005-.013-.008-.023-.008a.79.79 0 0 1-.115-.007.19.19 0 0 0-.115.023h-.107l-.015.015h-.016a.217.217 0 0 0-.16.03.346.346 0 0 0-.1.092 1.347 1.347 0 0 0-.107.153.683.683 0 0 1-.107.137.29.29 0 0 1-.076.053.294.294 0 0 0-.077.053.328.328 0 0 0-.084.085 2.959 2.959 0 0 0-.07.099c-.142.193-.287.386-.435.58-.148.193-.298.38-.452.564-.02.061-.056.092-.107.092 0 .04-.025.083-.076.129a.454.454 0 0 0-.107.13c-.03.071-.07.14-.115.206l-.13.19a2.446 2.446 0 0 1-.222.275 1.386 1.386 0 0 0-.207.29.958.958 0 0 1-.107.168.925.925 0 0 0-.107.167 2.58 2.58 0 0 1-.398.535.357.357 0 0 0-.1.167.356.356 0 0 1-.099.168.697.697 0 0 0-.122.16.724.724 0 0 1-.123.16.412.412 0 0 0-.092.137.272.272 0 0 1-.091.123c-.031.03-.085.043-.161.038a1.126 1.126 0 0 1-.176-.023 2.9 2.9 0 0 0-.214.008.624.624 0 0 1-.215-.023.295.295 0 0 1-.091-.015.279.279 0 0 0-.092-.016h-.1a.182.182 0 0 1-.1-.03 1.89 1.89 0 0 1 .2-.298l.23-.282.168-.168c.06-.06.117-.127.168-.198.01-.02.018-.04.023-.061a.072.072 0 0 1 .038-.046l.077-.046a.573.573 0 0 1 .084-.144l.1-.13.23-.29c.03-.041.068-.084.114-.13a.515.515 0 0 0 .1-.13c0-.02.01-.043.03-.068.02-.025.04-.048.06-.069a1.49 1.49 0 0 1 .07-.122.61.61 0 0 1 .084-.107l.245-.304a1.46 1.46 0 0 1 .275-.29.598.598 0 0 0 .214-.321c.021-.142-.03-.219-.152-.229-.052 0-.105-.002-.16-.007-.057-.005-.096.017-.116.068a.786.786 0 0 1-.206.26 1.562 1.562 0 0 0-.238.244l-.444.61a33.869 33.869 0 0 1-.826 1.037 6.95 6.95 0 0 1-.36.42 6.97 6.97 0 0 0-.359.42l-.245.289a.396.396 0 0 1-.115.107c-.026.01-.079.025-.16.046a2.36 2.36 0 0 0-.367.084 3.054 3.054 0 0 0-.337.13c-.082.03-.154.063-.215.099a.4.4 0 0 0-.153.175c-.05.06-.097.135-.137.22a.247.247 0 0 0 .015.253c.04.06.1.135.176.221.076.086.156.12.237.1.092-.021.189-.05.29-.085.103-.035.195-.079.276-.13.113-.081.207-.17.284-.266.076-.097.165-.186.267-.267a.382.382 0 0 1 .291-.069c.112.015.214.028.306.038.102.02.209.033.321.038.112.005.215.023.306.054a.33.33 0 0 1-.099.16.826.826 0 0 0-.13.16l-.146.206c-.045.066-.094.134-.145.206-.05.091-.11.178-.176.26a7.87 7.87 0 0 0-.191.243c-.122.173-.238.346-.345.519a4.7 4.7 0 0 1-.36.503c-.04.051-.073.1-.099.145a1.067 1.067 0 0 1-.099.145l-.107.153c-.03.02-.053.03-.07.03-.015 0-.032.02-.053.062-.02.07-.06.157-.122.259-.061.101-.066.193-.015.274.04.092.117.137.23.137h.091c.04.02.102.03.184.03h.138c.02 0 .033-.001.038-.007.005-.004.018-.007.038-.007.01 0 .035-.01.077-.03l.03-.031c.02-.01.033-.02.038-.03a.227.227 0 0 1 .039-.046c.05-.102.114-.196.191-.283.077-.086.145-.175.206-.266.072-.112.143-.219.215-.321.071-.102.148-.209.23-.32.102-.132.19-.267.267-.405.077-.137.16-.272.252-.404l.337-.397c.051-.08.1-.16.145-.236.047-.076.1-.15.161-.221.052-.071.097-.143.138-.214a.886.886 0 0 1 .138-.183.28.28 0 0 1 .092-.122c.02 0 .038-.002.053-.008a.164.164 0 0 1 .054-.007c.122-.02.24-.046.352-.076.112-.03.23-.057.352-.077.122-.03.23-.071.32-.122a1.57 1.57 0 0 1 .162-.053c.056-.016.094-.038.115-.069a.144.144 0 0 1 .084-.038.142.142 0 0 0 .084-.038.41.41 0 0 0 .107-.076.584.584 0 0 1 .092-.076.616.616 0 0 0 .206-.108c.067-.05.125-.1.177-.152a.484.484 0 0 0 .114-.183c.025-.071.008-.132-.053-.183-.103-.071-.187-.092-.253-.061-.066.03-.145.07-.237.122a.892.892 0 0 1-.23.168.162.162 0 0 0-.091.053.279.279 0 0 1-.092.069.328.328 0 0 0-.107.046c-.031.02-.067.04-.108.06a7.93 7.93 0 0 1-.313.13 1.822 1.822 0 0 1-.36.1c.01 0 .016-.003.016-.008s.004-.008.015-.008l.145-.198c.046-.061.095-.132.145-.214a.76.76 0 0 0 .1-.16.744.744 0 0 1 .1-.16c.132-.183.257-.372.375-.564.116-.194.252-.377.405-.55.143-.173.278-.36.406-.564.127-.204.262-.392.405-.564a2.41 2.41 0 0 0 .375-.489c.107-.183.232-.346.375-.488.061-.061.115-.122.16-.183.047-.061.1-.122.161-.183.051-.05.11-.107.177-.168a.43.43 0 0 0 .13-.213c0-.092-.031-.153-.092-.184l-.062-.03zm5.349.9a1.392 1.392 0 0 1-.314-.137.561.561 0 0 0-.26-.076 2.28 2.28 0 0 0-.681.023 4.577 4.577 0 0 0-.42.098 4.373 4.373 0 0 1-.376.107c-.127.03-.247.077-.36.138-.112.05-.221.104-.328.16-.108.055-.217.11-.33.16a1.206 1.206 0 0 0-.283.16 4.88 4.88 0 0 1-.267.19l-.154.062a.402.402 0 0 0-.137.092 3.689 3.689 0 0 1-.367.32c-.133.101-.256.219-.368.35l-.581.642c-.102.111-.21.239-.322.381-.112.142-.209.285-.29.427-.123.203-.24.407-.352.61-.112.203-.21.407-.291.61-.072.193-.133.38-.184.557-.05.178-.102.369-.153.572a.325.325 0 0 0-.015.168c.01.05.015.107.015.168a7.62 7.62 0 0 1-.03.22.82.82 0 0 0 0 .222.92.92 0 0 0 .107.39c.071.146.142.261.214.343.173.203.38.332.62.389.24.055.487.063.742.023.112-.02.22-.047.322-.077.101-.03.209-.056.32-.076a.92.92 0 0 0 .192-.077c.056-.03.115-.06.176-.09.123-.052.235-.113.337-.184.102-.071.209-.143.321-.214.061-.05.122-.099.184-.144.06-.047.117-.095.168-.146a.583.583 0 0 0 .107-.137.224.224 0 0 1 .054-.06.443.443 0 0 0 .053-.046.58.58 0 0 0 .13-.146.398.398 0 0 1 .13-.13.212.212 0 0 0 .115-.106 2.19 2.19 0 0 1 .084-.153c.041-.06.09-.124.146-.19a.822.822 0 0 0 .13-.206c.061-.102.115-.208.16-.32.046-.112.095-.224.146-.336a1.547 1.547 0 0 0 .199-.519l.06-.442c.022-.142.022-.29 0-.442a1.188 1.188 0 0 0-.098-.313c-.056-.127-.126-.211-.207-.252a.728.728 0 0 0-.115-.046.34.34 0 0 1-.1-.046.474.474 0 0 0-.13-.068 2.57 2.57 0 0 0-.16-.023 1.385 1.385 0 0 0-.49.023 1.389 1.389 0 0 0-.398.167 3.387 3.387 0 0 0-.36.26 6.982 6.982 0 0 1-.39.298l-.091.091c-.041.04-.072.06-.092.06a.667.667 0 0 0-.077.138l-.122.153c-.041.05-.087.101-.138.152a3.836 3.836 0 0 0-.222.306l-.206.32c-.072.111-.12.223-.146.335a7.555 7.555 0 0 0-.068.336c-.031.142-.064.275-.1.397a.698.698 0 0 0 .008.396.45.45 0 0 0 .176.26c.086.06.18.04.283-.062.05-.05.076-.101.076-.152a.523.523 0 0 0-.023-.152 1.991 1.991 0 0 1-.038-.146.193.193 0 0 1 .03-.144.349.349 0 0 0 .047-.183.49.49 0 0 1 .03-.184l.046-.167c.03-.112.072-.209.122-.29.051-.082.103-.168.154-.26.091-.162.204-.315.336-.457.133-.143.266-.275.398-.397.194-.193.398-.34.612-.442.153-.061.288-.112.406-.153.117-.04.252.01.405.153a.488.488 0 0 1 .153.305c.02.06.02.132 0 .214a.14.14 0 0 1-.015.06.136.136 0 0 0-.015.062.143.143 0 0 0-.008.083.143.143 0 0 1-.008.084c-.02.102-.04.178-.06.23a.889.889 0 0 1-.085.197c-.036.061-.07.127-.1.199-.05.081-.097.165-.137.251-.04.087-.082.17-.122.252a.817.817 0 0 1-.1.175 2.83 2.83 0 0 0-.115.161.322.322 0 0 1-.046.076c-.01.01-.03.015-.061.015 0 .082-.043.16-.13.237a5.85 5.85 0 0 1-.207.175 3.034 3.034 0 0 1-.221.229 1.545 1.545 0 0 1-.238.183l-.29.183c-.031.02-.08.056-.146.107-.066.05-.115.076-.145.076a2.127 2.127 0 0 1-.543.19c-.21.047-.411.06-.605.039-.194-.091-.311-.285-.352-.58a1.563 1.563 0 0 1-.008-.26 3.75 3.75 0 0 0 .008-.243c0-.071.01-.135.03-.19a.924.924 0 0 0 .046-.191c0-.112.02-.224.062-.336l.122-.336.061-.19a.805.805 0 0 1 .077-.176l.153-.274a3.6 3.6 0 0 0 .237-.427c.066-.143.15-.28.253-.412.05-.072.104-.146.16-.222.057-.076.115-.144.177-.205.05-.051.094-.102.13-.153.035-.05.074-.102.114-.153a2.26 2.26 0 0 0 .122-.167.313.313 0 0 1 .139-.123 1.215 1.215 0 0 0 .214-.229c.05-.05.102-.098.153-.144.05-.046.102-.094.153-.145l.336-.274c.02 0 .051-.021.092-.062.04-.04.061-.056.061-.046 0-.01.02-.033.061-.068.042-.036.09-.071.146-.107.056-.036.107-.071.153-.107.046-.035.079-.053.1-.053a.366.366 0 0 0 .099-.069.975.975 0 0 1 .1-.084l.137-.053a.241.241 0 0 0 .107-.084.594.594 0 0 1 .154-.099c.07-.036.132-.064.183-.084.01-.02.036-.04.076-.061.042 0 .082-.01.123-.03.184-.062.393-.1.627-.115a.843.843 0 0 1 .612.19.294.294 0 0 1-.1.146.753.753 0 0 0-.129.13c-.041.06-.051.116-.03.167l.06.153c.031.132.102.226.215.282a.438.438 0 0 0 .574-.183c.056-.097.094-.186.114-.267a.498.498 0 0 0 0-.343 5.7 5.7 0 0 0-.137-.328.428.428 0 0 0-.268-.214zM92.2 61.789h2.349v-.459H92.2v.459zm17.76-1.353c-.076.321-.101.43-.753.43h-.093c-.382 0-.46-.001-.46-.84v-.343c.58.005.58.065.58.522v.152h.459V58.39h-.459v.151c0 .467 0 .519-.58.522v-.968h.368c.65 0 .676.117.743.43l.066.287.446.001-.08-1.328-3.011-.001v.474h.152c.382 0 .461 0 .461.839v1.366c-.001.848-.09.848-.462.847h-.152v.475l3.197.001.081-1.337h-.44l-.064.288zm-5.327-2.836c-.015.065-.03.12-.042.164-.27-.26-.642-.427-.974-.428-1.05 0-1.906.96-1.906 2.141 0 1.185.854 2.15 1.905 2.151.329 0 .702-.17.976-.432.012.047.026.102.039.166l.025.121h.423v-1.79h-.433l-.023.125c-.139.746-.506 1.174-1.007 1.173-.926 0-.972-1.26-.972-1.514 0-.252.047-1.513.973-1.513.5 0 .868.429 1.006 1.174l.023.125h.434v-1.781h-.42l-.027.118zm-5.834.354h.152c.38 0 .46 0 .46.84v1.087l-1.836-2.401h-1.182v.474h.152c.382 0 .461 0 .461.838v1.367c0 .847-.09.847-.462.847h-.152v.474l1.817.001v-.475h-.151c-.373 0-.462 0-.462-.847v-1.222l2.03 2.681h.375l.001-2.825c0-.838.08-.838.462-.838h.152v-.475h-1.817v.474zm-4.374 2.079h-.152c-.408 0-.461 0-.461-.549v-.957c0-.543.054-.543.462-.542h.152v-.424h-2.081v.423h.152c.408 0 .461 0 .461.542v.958c0 .548-.054.548-.462.548h-.152v.423h2.081v-.422zm-4.713-.828l-.52-.299c-.475-.275-.598-.4-.598-.603 0-.254.219-.343.406-.343.519 0 .636.685.663.98l.012.138h.446v-1.746h-.442l-.016.135a.332.332 0 0 1-.012.064c-.169-.101-.4-.191-.69-.191-.628 0-1.121.494-1.122 1.125 0 .49.256.907.72 1.174l.53.3c.494.272.558.478.558.627 0 .31-.23.42-.446.42-.517 0-.858-.373-.911-.997l-.012-.139h-.447v1.772h.42l.021-.127a.446.446 0 0 1 .041-.127c.269.167.552.255.826.255.715 0 1.253-.568 1.254-1.321 0-.455-.249-.855-.68-1.097zM60.776 56.51c-.009-.04-.001-.082-.002-.123-.014-1.186-.037-2.373-.041-3.559-.011-2.645-.12-5.291-.023-7.936a2.506 2.506 0 0 0-.011-.325c-.016-.175-.055-.35-.056-.525-.01-1.553.054-3.105-.063-4.659-.04-.53.003-1.064.01-1.595.018-1.418.039-2.835.056-4.253.004-.273-.005-.545-.007-.818-.002-.478-.197-.87-.55-1.195a2.858 2.858 0 0 1-.255-.271c-.394-.47-.779-.942-1.331-1.256.348.284.633.628.921.973.08.095.164.187.255.271.354.325.548.717.55 1.195.002.273.011.545.008.818-.018 1.418-.039 2.835-.057 4.253-.007.531-.049 1.066-.01 1.594.118 1.554.054 3.107.064 4.66 0 .175.04.35.055.525.01.108.015.217.011.325-.095 2.644.012 5.291.023 7.936.005 1.186.028 2.373.042 3.559 0 .04-.007.083.001.123.089.422-.065.776-.313 1.1-.174.228-.348.455-.533.674-.378.448-.762.891-1.144 1.337-.018.02-.033.043-.052.063l-.48.504c-.291.078-.581.166-.876.234-.55.126-1.101.248-1.627.459-.74.296-1.482.59-2.233.858-.517.184-1.053.32-1.58.48-.262.08-.527.157-.784.25-.26.095-.516.18-.801.179-.16 0-.322.065-.48.112-.198.057-.4.11-.587.191-.257.113-.532.133-.803.182-.19.034-.375.088-.561.132-.096.022-.192.045-.288.063a.19.19 0 0 0 .03.11c.08.123.185.208.344.18.109-.018.216-.045.323-.07.187-.044.372-.098.562-.132.27-.049.546-.069.803-.181.188-.082.39-.135.587-.192.158-.046.319-.112.479-.112.286 0 .541-.084.8-.179.259-.093.523-.17.786-.25.527-.16 1.062-.296 1.579-.48a60.435 60.435 0 0 0 2.233-.858c.527-.21 1.077-.333 1.628-.459.295-.068.584-.156.876-.234l.48-.504c.018-.02.034-.042.051-.063.382-.445.767-.888 1.145-1.337.184-.219.359-.446.532-.673.248-.325.402-.679.314-1.101zm89.926-44.636c-.082-.126-.157-.26-.249-.379-.343-.447-.567-.933-.561-1.506.002-.297-.019-.594-.026-.891a.467.467 0 0 1 .014-.163c.084-.25.064-.51.072-.769.011-.422.029-.844.054-1.265.014-.257.047-.514.074-.77a.723.723 0 0 0-.137-.502c-.422-.613-.837-1.23-1.256-1.845-.03-.044-.07-.082-.096-.111-.075-.02-.148-.028-.222-.037.388.57.774 1.141 1.165 1.71a.723.723 0 0 1 .136.501c-.026.257-.059.513-.074.77-.025.422-.042.844-.054 1.266-.007.258.013.518-.071.77a.495.495 0 0 0-.015.161c.008.298.028.595.026.892-.005.572.219 1.059.562 1.506.092.12.166.253.248.38.072.109.089.227.053.387-.078.032-.175.077-.275.112-.977.339-1.982.585-2.985.836-.441.111-.88.22-1.309.373a3.08 3.08 0 0 1-.391.104c-.026.126.005.237.13.345.22-.053.454-.088.671-.166.429-.152.867-.262 1.31-.373 1.001-.251 2.006-.497 2.983-.836.1-.035.197-.08.276-.112.035-.16.019-.277-.053-.388zm-.974 5.859a16.734 16.734 0 0 1-1.512-1.233.551.551 0 0 0-.241-.137c.428.386.88.743 1.343 1.087.264.195.377.433.407.763.055.601.038 1.198.025 1.798a68.647 68.647 0 0 1-.1 2.41c-.07 1.209-.08 2.424-.116 3.636l-.061 1.961c-.024.722-.057 1.444-.073 2.166-.006.268-.061.501-.237.718a19.39 19.39 0 0 0-.78 1.048 28.03 28.03 0 0 0-.654.984c-.099.154-.74.85-.893.945-.059.036-.118.096-.179.096-.366.002-.675.235-1.042.228-.068 0-.137.02-.203.038-.492.13-.983.263-1.475.394-.092.024-.188.068-.28.06-.33-.028-.624.092-.925.188-.183.059-.366.122-.555.157-.57.105-1.137.224-1.692.393-.248.076-.51.116-.766.167a.457.457 0 0 1-.237-.017l-.045.008c.075.053.144.113.222.161.143.087.293.166.47.131.256-.05.517-.09.766-.167.555-.17 1.12-.288 1.691-.392.189-.036.372-.1.556-.157.3-.097.594-.217.925-.189.091.008.187-.036.28-.06.491-.131.983-.264 1.474-.394.067-.018.136-.038.204-.037.366.006.675-.226 1.042-.229.06 0 .12-.06.178-.096.154-.096.794-.79.893-.944.213-.332.428-.663.655-.985.251-.356.505-.71.78-1.048.176-.216.23-.45.236-.718.017-.722.049-1.444.073-2.166.022-.653.042-1.307.061-1.961.036-1.212.047-2.427.116-3.637.046-.803.082-1.605.1-2.41.014-.598.03-1.196-.024-1.797-.03-.33-.144-.568-.407-.763zm-7.856-7.291c.134-.188.285-.382.491-.47.378-.16.758-.326 1.177-.376.122-.015.238-.068.358-.097.174-.041.348-.08.522-.118l.005-.194a.58.58 0 0 0-.021-.202c-.088-.243-.652-.586-.916-.542-.284.047-.564.121-.845.188-.121.028-.237.082-.36.097-.417.05-.799.216-1.175.376-.206.087-.357.282-.492.47-.181.252-.247.548-.272.844-.044.514-.056 1.032-.072 1.548-.018.585-.025 1.17-.037 1.756-.011.572-.028 1.144-.027 1.716 0 .188.049.375.071.54a.924.924 0 0 0 .776.178c.137-.029.275-.055.412-.08.003-.496.014-.99.024-1.486.011-.585.019-1.17.036-1.756.016-.516.029-1.033.073-1.548.025-.295.09-.592.272-.844zm-.951 23.73c-.57.105-1.136.223-1.691.393-.249.076-.51.116-.767.167-.176.035-.326-.045-.469-.13a4.146 4.146 0 0 1-1.004-.86 6.257 6.257 0 0 0-.754-.769c-.28-.231-.444-.522-.42-.894.011-.19.021-.38.022-.57.009-1.13.016-2.261.022-3.391.002-.313.043-.623-.012-.938-.036-.197-.076-.367-.244-.5-.071-.056-.11-.152-.177-.247a.69.69 0 0 1 .436-.346c.662-.188 1.324-.379 1.985-.571.185-.054.363-.132.55-.176.374-.09.754-.163 1.13-.247.118-.027.23-.079.35-.103.12-.024.245-.028.364-.04.133.116.137.233.073.375-.14.31-.257.63-.408.935-.118.239-.162.487-.173.748-.018.449-.041.898-.054 1.347-.004.135-.002.277.035.406.051.174.201.295.346.392.213.142.44.202.704.087.055-.024.115-.039.172-.058.014-.436.035-.87.053-1.306.01-.26.054-.509.173-.748.151-.305.267-.626.407-.935.01-.02.014-.038.02-.057.105-.017.214-.024.318-.034.132.115.136.232.072.374-.14.31-.256.63-.407.935-.12.24-.163.488-.174.748l-.036.902.154-.036c.485-.11.966-.229 1.43-.407.113-.044.238-.06.358-.09.469-.12.75-.451.782-.932.009-.15 0-.3 0-.45.003-1.172.002-2.344.013-3.516.003-.285.052-.568.07-.853.015-.244.018-.49.022-.735 0-.01-.003-.019-.003-.028-.26.04-.522.079-.775.143-.829.21-1.652.435-2.506.534-.286.034-.567.115-.845.193a.638.638 0 0 1-.549-.08c-.095-.058-.186-.122-.277-.185l.028-.006c.01-.003.022-.005.032-.009a.625.625 0 0 0 .356-.003c.278-.078.56-.16.846-.193.854-.1 1.677-.324 2.505-.534.28-.07.567-.111.854-.155.08.022.156.062.23.125.03.025.061.047.092.07a.66.66 0 0 0-.317-.494 6.05 6.05 0 0 1-.642-.456.536.536 0 0 0-.458-.139c-.339.056-.683.097-1.015.18-.828.211-1.65.435-2.505.535-.286.033-.568.114-.846.193a.638.638 0 0 1-.548-.08c-.547-.335-1.021-.759-1.509-1.168a1.224 1.224 0 0 1-.401-.608 1.413 1.413 0 0 1-.06-.442c.019-.504.056-1.007.08-1.51.04-.885.073-1.77.113-2.655.033-.749.08-1.497.105-2.246.023-.708.026-1.417.038-2.125 0-.068-.011-.137-.002-.204.014-.107.021-.214.03-.32l-.013.027c-.133.31-.316.597-.48.892-.08.143-.17.278-.246.422-.133.251-.249.513-.39.76-.134.235-.292.455-.459.713l-.307-.01c-.013-.045-.036-.082-.035-.12l.006-.265c.139-.21.272-.403.385-.601.142-.247.257-.51.39-.761.076-.143.168-.279.246-.42.164-.296.347-.584.48-.893.143-.33.297-.652.47-.966.005-.126.009-.25.017-.376.014-.203.035-.407.047-.61.034-.575.247-1.081.574-1.55.32-.457.628-.922.954-1.375a.735.735 0 0 1 .31-.256 72.911 72.911 0 0 1 1.974-.725c.805-.286 1.644-.461 2.47-.682.384-.103.781-.168 1.136-.364.034-.019.078-.025.118-.032.535-.09 1.029-.289 1.524-.497.472-.198.97-.31 1.511-.164.026.029.066.066.097.111.42.615.834 1.232 1.256 1.844a.723.723 0 0 1 .136.502c-.026.257-.059.513-.074.77-.024.422-.042.844-.054 1.266-.007.258.013.518-.07.769a.467.467 0 0 0-.016.162c.008.297.029.595.026.892-.005.573.218 1.058.562 1.506.093.12.166.252.249.379.072.11.088.228.053.387-.08.033-.176.078-.276.112-.977.34-1.982.586-2.984.837-.442.11-.88.22-1.31.373-.217.078-.45.113-.67.165-.15-.128-.17-.26-.111-.419.162-.432.316-.868.481-1.3.122-.321.188-.65.188-.996l.002-.123-.102.023c-.12.029-.237.083-.358.097-.419.05-.8.216-1.177.376-.206.088-.357.282-.492.47-.181.252-.246.549-.272.844-.044.515-.056 1.032-.072 1.548-.018.585-.026 1.17-.037 1.756l-.018 1.115c.036-.008.07-.014.106-.023.562-.137 1.119-.294 1.68-.434.52-.129 1.045-.245 1.568-.365.358-.083.714-.03 1.067.042a.55.55 0 0 1 .248.141c.474.446.99.844 1.512 1.233.263.195.377.433.407.763.054.6.037 1.199.024 1.797a68.65 68.65 0 0 1-.1 2.41c-.07 1.21-.08 2.424-.116 3.637l-.061 1.96c-.024.723-.056 1.445-.073 2.167-.006.268-.06.502-.236.717-.275.338-.53.693-.78 1.049-.228.322-.442.653-.655.984-.099.154-.74.849-.893.944-.058.037-.119.097-.179.097-.366.002-.675.234-1.042.229-.067-.002-.137.019-.203.036-.491.131-.983.264-1.474.394-.093.025-.189.069-.28.061-.33-.028-.624.092-.925.188-.184.058-.368.122-.556.157zm-29.37-3.752a93.975 93.975 0 0 0-.427-2.166c-.109-.523-.22-1.045-.328-1.568-.117.588-.217 1.18-.292 1.776-.034.27-.098.534-.148.801-.04.214-.082.427-.118.642-.095.583-.186 1.168-.282 1.75.178-.043.359-.08.535-.13.238-.07.482-.118.725-.17a.407.407 0 0 0 .338-.366 1.88 1.88 0 0 0-.004-.569zm-1.605-1.44c.05-.267.115-.532.148-.801.11-.872.28-1.731.473-2.586-.14-.677-.28-1.354-.423-2.03-.073-.345-.12-.698-.299-1.128-.049.168-.075.244-.092.322-.077.345-.14.693-.228 1.035a28.29 28.29 0 0 0-.686 3.518c-.034.27-.098.535-.148.802-.04.214-.083.427-.118.642-.101.618-.196 1.236-.3 1.853-.051.309-.119.614-.173.921-.029.165-.031.329.129.445.028.004.057.014.083.01.39-.06.777-.129 1.161-.209.019-.1.04-.199.056-.298.103-.618.199-1.236.3-1.854.035-.215.078-.428.117-.642zm-7.782 16.74c-.417.112-.838.216-1.255.33-.28.078-.556.162-.829.257-.401.14-.793.29-1.228.336-.324.034-.637.159-.952.252-.291.085-.589.16-.865.28-.39.17-.805.166-1.214.21-.036.004-.076-.03-.138-.055.085-.236.096-.483.216-.72.126-.25.172-.542.254-.816.066-.22.127-.446.365-.565-.1-.312-.06-.607-.037-.905.035-.462.04-.926.046-1.39.008-.558.018-1.117.002-1.675-.021-.777-.067-1.553-.1-2.328a49.254 49.254 0 0 1-.034-1.062c-.01-.476.02-.955-.075-1.428-.01-.053-.007-.108-.005-.163.026-.697-.032-1.392-.062-2.088-.085.251-.183.498-.262.751-.163.518-.316 1.04-.473 1.56-.03.103-.049.212-.085.314-.383 1.064-.56 2.182-.843 3.273-.143.55-.494.848-1.029.978-.28.069-.565.13-.843.207-.304.084-.602.002-.901-.027-.063-.007-.145-.092-.172-.158l-.023-.053c.072 0 .144-.006.216-.018.156.015.312.017.47-.027.28-.077.562-.138.843-.207.535-.13.887-.43 1.03-.978.283-1.09.46-2.209.842-3.273.036-.102.055-.21.086-.314.156-.521.31-1.042.472-1.56.081-.26.183-.512.268-.77.132-.398.275-.792.363-1.204-.006-.312-.012-.625-.021-.937-.004-.15-.04-.298-.048-.447-.03-.517-.058-1.034-.082-1.552-.017-.38-.028-.76-.042-1.141l-.074-.011c-.025.043-.062.084-.072.13-.145.68-.375 1.334-.623 1.982-.12.316-.202.65-.262.984-.08.46-.249.89-.394 1.328-.085.257-.187.51-.268.77-.163.518-.316 1.04-.473 1.56-.031.103-.05.211-.086.314-.382 1.064-.559 2.182-.842 3.272-.143.55-.494.848-1.03.979-.28.069-.564.13-.843.206-.303.085-.602.003-.9-.027-.064-.006-.145-.091-.172-.157-.21-.506-.459-1.004-.596-1.528-.13-.493-.364-.926-.589-1.371a2.472 2.472 0 0 1-.16-.377c-.122-.395-.302-.766-.48-1.138-.002.067-.002.134-.006.2-.04.57-.08 1.14-.058 1.712.005.122.011.249-.013.367-.076.365-.043.734-.04 1.1.011 1.253.046 2.506.068 3.76.003.217-.014.435-.024.652-.043.923-.058 1.847.01 2.772.007.094.008.189.01.284.01.504.075 1.005.12 1.507.035.392.092.787.045 1.182a.922.922 0 0 0 .012.244c.05.324.108.646.102.975a.64.64 0 0 0 .207.475c.184.185.34.396.535.626-.004.039-.096.015-.149.041-.048.024-.105.034-.158.049-1.105.29-2.21.574-3.313.87-.607.164-1.221.306-1.8.555-.22.094-.45.134-.69-.047.011-.05.02-.112.04-.17a.959.959 0 0 0 .24-.066c.58-.249 1.193-.391 1.8-.554 1.103-.297 2.21-.581 3.314-.871.053-.015.11-.025.157-.049.054-.026.145-.002.149-.04-.195-.231-.35-.442-.534-.627a.636.636 0 0 1-.207-.475c.006-.33-.053-.651-.103-.975a.923.923 0 0 1-.011-.244c.047-.395-.01-.79-.045-1.182-.045-.502-.111-1.003-.12-1.507-.003-.095-.003-.19-.01-.285-.069-.924-.053-1.848-.01-2.771.01-.218.027-.435.023-.653-.021-1.253-.056-2.506-.067-3.76-.003-.365-.037-.734.039-1.099.025-.118.019-.245.013-.367-.022-.573.02-1.142.059-1.712a8.13 8.13 0 0 0 .017-.688c-.25-.454-.515-.9-.764-1.354-.112-.204-.205-.418-.309-.627-.042-.083-.09-.163-.129-.235-.102.008-.102.068-.103.12-.001.163-.011.328.006.49.05.475.058.952.026 1.426-.04.57-.08 1.139-.058 1.711.005.123.011.25-.014.368-.075.364-.043.733-.039 1.099.011 1.253.046 2.507.068 3.76.003.217-.014.435-.024.653-.043.923-.059 1.847.01 2.771.007.094.008.19.01.284.01.505.075 1.006.12 1.508.035.392.092.786.045 1.182a.898.898 0 0 0 .011.244c.051.324.109.645.103.975a.64.64 0 0 0 .207.475c.184.185.34.395.534.627-.004.037-.095.013-.148.04-.048.024-.105.034-.158.048-1.104.29-2.21.575-3.314.871-.606.163-1.22.306-1.8.555-.22.093-.45.133-.69-.048.015-.062.02-.142.053-.208.073-.146.166-.281.241-.426.146-.276.285-.556.424-.835.085-.17.165-.342.275-.573-.14-.952-.074-1.971-.06-2.99.01-.764.037-1.527.042-2.29.005-.832-.017-1.664-.007-2.495.009-.75.048-1.498.068-2.247.01-.368.005-.736.012-1.104.024-1.198.045-2.396-.001-3.595-.016-.394.008-.79.013-1.185.01-.748.02-1.496.034-2.244a5.46 5.46 0 0 1 .027-.53c.03-.271.03-.54.01-.814-.027-.326-.02-.653-.02-.98-.001-.666-.003-1.333.006-1.999.005-.366.038-.732.044-1.098.006-.257-.016-.515-.017-.772-.002-.313.004-.626.009-.939a.675.675 0 0 0-.074-.355c-.276-.49-.541-.988-.817-1.48-.08-.143-.186-.272-.275-.411a.554.554 0 0 1-.083-.184c-.058-.299.051-.49.357-.531.652-.086 1.24-.36 1.86-.536.625-.178 1.219-.43 1.826-.652.103-.038.21-.064.317-.092.352-.09.538-.017.722.296.112.19.213.385.319.578.045.084.08.176.135.254.447.638.717 1.357 1.014 2.063.026.064.05.13.09.185.29.408.46.873.677 1.316.193.394.39.787.575 1.185.104.223.212.449.275.685.11.414.314.787.496 1.17.268.569.53 1.142.884 1.668.053.078.075.176.111.265.14.34.279.681.42 1.021.01.022.04.034.065.053.09.012.116-.067.137-.12.099-.247.2-.49.299-.737a17.037 17.037 0 0 1-.66-1.282c-.182-.383-.387-.756-.496-1.17-.062-.236-.172-.462-.276-.685-.184-.398-.38-.79-.574-1.185-.217-.443-.387-.908-.677-1.315-.04-.056-.064-.122-.09-.185-.298-.707-.567-1.426-1.014-2.063-.055-.079-.09-.17-.136-.255-.105-.193-.207-.388-.318-.578-.01-.017-.02-.025-.03-.04.181.013.313.108.44.323.11.19.213.385.318.578.046.085.08.177.136.255.446.637.716 1.356 1.013 2.063.027.063.051.13.09.185.29.408.46.872.678 1.315.192.395.389.787.574 1.185.103.223.213.45.275.685.11.415.314.787.496 1.17.116.245.232.49.353.731.08-.208.163-.417.232-.63.134-.412.25-.832.387-1.245.204-.619.361-1.254.569-1.871.204-.607.385-1.219.55-1.837.21-.788.519-1.544.761-2.322.145-.467.26-.944.413-1.408.225-.684.475-1.36.706-2.042.091-.269.184-.54.231-.82.05-.293.229-.466.48-.559a108.16 108.16 0 0 1 2.52-.9c.495-.17.996-.32 1.497-.473.131-.04.27-.06.406-.08.24-.035.24-.032.41.236-.09.314-.24.594-.415.87a2.274 2.274 0 0 0-.338 1.117c-.05.925-.013 1.85.008 2.775.015.64-.003 1.28-.004 1.92 0 .26-.013.52.013.777.044.437.03.872.007 1.307-.003.055-.006.11-.005.164.015.763.033 1.526.047 2.288.004.217-.004.435-.006.652-.008.49-.017.98-.022 1.47-.004.422 0 .844-.005 1.266-.009.708-.043 1.416-.03 2.124.02.98.076 1.96.115 2.94.004.096.009.191.007.286-.01 1.063-.025 2.127-.033 3.19-.002.245.017.49.026.735.006.191.016.382.013.572-.01.667-.035 1.335-.033 2.002 0 .49.03.98.057 1.47a.947.947 0 0 0 .08.313c.152.366.351.715.39 1.118.003.039.03.076.05.112.083.153.168.305.272.493.05-.132.074-.23.122-.315.045-.082.126-.146.172-.228.075-.132.145-.267.218-.4a.865.865 0 0 1-.048-.225c-.026-.49-.057-.98-.058-1.47 0-.667.024-1.334.034-2.002.003-.19-.008-.381-.014-.571-.007-.245-.027-.49-.025-.736.008-1.063.022-2.126.033-3.19.001-.095-.003-.19-.007-.286-.04-.98-.095-1.96-.114-2.94-.015-.708.02-1.415.029-2.124.005-.422.001-.844.005-1.265.005-.49.014-.98.021-1.47.003-.218.01-.435.007-.653-.014-.763-.032-1.525-.048-2.288 0-.054.003-.109.006-.163a8.59 8.59 0 0 0-.008-1.308c-.026-.257-.013-.518-.013-.776.001-.64.02-1.28.005-1.92-.021-.926-.058-1.85-.009-2.776.022-.408.126-.78.339-1.116.164-.26.304-.528.395-.82.007 0 .013-.002.019-.003.24-.036.241-.033.41.235-.089.314-.24.595-.415.87a2.274 2.274 0 0 0-.338 1.117c-.049.926-.013 1.85.009 2.775.014.64-.004 1.28-.005 1.921 0 .259-.013.52.013.776.044.438.03.872.007 1.308-.002.054-.006.109-.005.163.015.763.034 1.526.047 2.289.004.217-.003.434-.006.651-.007.49-.017.98-.021 1.47-.005.422 0 .844-.006 1.266-.009.709-.043 1.416-.03 2.124.02.98.076 1.96.116 2.94.004.096.008.191.007.286-.012 1.064-.026 2.127-.033 3.19-.003.245.017.49.025.736.006.19.016.381.013.571-.01.668-.034 1.335-.033 2.003 0 .264.01.53.022.794.21-.42.415-.845.62-1.268.03-.06.073-.132.062-.19-.065-.335.116-.638.104-.97-.008-.207.108-.415.145-.628.092-.522.198-1.044.247-1.571.046-.487.11-.972.149-1.458.044-.558.127-1.108.225-1.656.109-.603.213-1.204.285-1.813.044-.377.134-.748.203-1.122.015-.08.043-.16.045-.24.011-.494.13-.966.288-1.43.042-.127.075-.262.084-.395.041-.64.187-1.263.304-1.89.047-.254.148-.497.193-.75.09-.495.157-.994.237-1.49.037-.228.08-.454.125-.68.072-.36.152-.718.22-1.08.078-.414.12-.837.228-1.243.117-.45.184-.906.256-1.362.07-.442.123-.888.2-1.329.092-.522.208-1.038.369-1.545.135-.427.233-.866.345-1.3.081-.317.164-.633.234-.952.067-.305.147-.61.17-.92.039-.505.143-.995.256-1.492-.076-.21-.255-.35-.394-.52-.14-.17-.278-.343-.435-.497-.128-.126-.138-.258-.08-.449.123-.055.267-.128.418-.184 1.367-.51 2.801-.823 4.17-1.328.064-.024.131-.06.197-.058.256.007.484-.098.724-.157.108-.026.214-.056.32-.083.131-.032.277-.118.388.009.092.106.003.231-.034.344-.08.246-.163.49-.242.736-.033.103-.04.218-.088.313-.182.358-.125.72.008 1.069.158.415.187.852.278 1.277.108.508.183 1.02.271 1.532.029.162.059.323.08.485.071.586.27 1.143.43 1.708a5.9 5.9 0 0 1 .192 1.087c.037.42.098.837.224 1.244.048.156.074.319.092.48.093.826.172 1.653.274 2.478.041.338.128.67.197 1.005.124.601.235 1.205.378 1.802.109.453.172.91.208 1.37.037.493.166.968.263 1.45.121.601.237 1.204.366 1.804.094.44.193.879.312 1.313.257.935.49 1.874.642 2.832.07.443.218.875.328 1.312.055.224.125.448.155.675.034.254.175.46.29.673.12.226.286.43.436.641a.358.358 0 0 0 .125.106c.218.107.324.292.387.532-.055.025-.112.06-.173.078-.741.212-1.481.43-2.227.63-.974.261-1.901.648-2.858.956l-.502.164c.016-.095.015-.147.033-.191.142-.339.283-.678.434-1.012a.395.395 0 0 0 .028-.275c-.175-.703-.349-1.406-.52-2.11-.054-.225-.09-.455-.15-.679-.02-.069-.04-.137-.058-.205-.173.026-.347.05-.517.087-.686.152-1.393.211-2.056.457-.142.052-.29.089-.438.122-.427.097-.64.385-.715.786-.168.908-.33 1.818-.487 2.729-.077.441-.138.885-.206 1.328-.009.054-.018.108-.022.162-.044.521-.042.535.23 1.005.15.262.307.521.46.782.006.01.002.026.006.07-.082.042-.171.1-.27.133a30.47 30.47 0 0 1-.988.302c-.596.17-1.193.334-1.79.501-.08.023-.163.038-.236.074-.346.175-.727.248-1.092.37-.626.21-1.275.342-1.912.517-.278.078-.556.161-.829.256-.401.14-.793.29-1.228.336-.323.034-.637.159-.952.251-.291.087-.589.16-.864.281-.39.17-.806.166-1.215.21-.036.004-.076-.029-.138-.055.03-.085.05-.172.07-.259.297-.025.591-.056.874-.179.275-.12.573-.194.863-.28.315-.093.629-.219.953-.252.434-.046.826-.196 1.228-.336.272-.095.55-.179.828-.256.231-.064.465-.12.698-.178l.167-.044a14.1 14.1 0 0 0 1.048-.296c.364-.121.746-.194 1.092-.369.072-.037.156-.051.235-.074.597-.167 1.195-.331 1.79-.501.332-.095.66-.196.988-.302.099-.032.189-.091.27-.132-.003-.046 0-.06-.006-.071-.153-.261-.308-.52-.46-.782-.272-.47-.274-.484-.23-1.005.005-.054.014-.108.022-.162.068-.443.13-.887.206-1.328.158-.911.32-1.82.487-2.73.074-.4.288-.688.716-.785.147-.033.296-.07.437-.122.663-.246 1.37-.306 2.057-.457.274-.06.555-.093.83-.145-.07-.252-.138-.505-.21-.757a.6.6 0 0 0-.068-.15c-.076-.124-.225-.184-.359-.126-.462.199-.967.204-1.45.31-.685.152-1.392.21-2.055.457-.142.052-.29.089-.438.122-.428.096-.641.385-.715.785-.168.909-.33 1.819-.487 2.73-.077.441-.138.885-.207 1.328-.008.053-.017.107-.021.161-.045.522-.043.535.23 1.006.15.262.307.52.46.781.006.01.002.026.006.071-.082.041-.172.101-.27.133a30.47 30.47 0 0 1-.988.301c-.596.17-1.194.334-1.79.502-.08.022-.164.037-.236.074-.346.174-.728.248-1.092.37-.126.042-.256.072-.384.109l-.273.077zM50.57 36.263c.008.45.038.899.039 1.348 0 .735-.017 1.47-.025 2.205 0 .068-.01.14.01.203.053.163.037.32.002.483-.022.103-.003.215-.003.322-.001.095-.005.188-.005.283.001.121.001.242.005.363.005.163.016.325.022.488.006.148-.005.299.016.445.041.285.073.568.034.855-.01.079.002.161.01.242.013.136.037.27.043.405.023.53.007 1.063.068 1.587.048.398-.045.786 0 1.179-.115.425.053.868-.067 1.293a.314.314 0 0 0 .011.162c.05.177.033.35.001.526-.016.092-.01.19-.006.285.01.218.034.435.036.653.006.926.031 1.854-.001 2.779-.033.97.12 1.932.098 2.9-.001.038.018.078.028.114.031.01.059.029.082.025.095-.017.19-.032.282-.061.276-.087.556-.155.836-.226-.037-.627-.092-1.254-.07-1.884.032-.925.006-1.852 0-2.779-.001-.218-.025-.435-.035-.653-.004-.095-.01-.192.006-.284.031-.177.048-.35-.001-.527a.318.318 0 0 1-.012-.162c.12-.426-.047-.868.069-1.293-.046-.393.046-.78-.001-1.179-.062-.525-.046-1.057-.068-1.586-.005-.136-.03-.27-.043-.405-.008-.081-.021-.164-.01-.243.039-.287.008-.57-.035-.855-.02-.146-.01-.296-.016-.444l-.021-.489c-.004-.12-.004-.242-.004-.363l.003-.282c0-.108-.019-.22.004-.323a.906.906 0 0 0-.002-.483c-.02-.063-.011-.135-.01-.203.008-.735.024-1.47.024-2.205 0-.449-.03-.898-.038-1.347-.003-.176.017-.352.029-.551.517-.27 1.051-.368 1.546-.564.38-.15.748-.335 1.136-.486l-.006-.142c-.31-.297-.573-.618-.932-.843-.512.16-.97.411-1.454.603-.494.196-1.029.294-1.546.564-.011.199-.032.375-.029.55zm3.985-.284c-.248.11-.494.222-.744.32-.495.197-1.03.295-1.547.565-.011.2-.032.375-.029.55.009.45.039.899.039 1.348 0 .735-.016 1.47-.025 2.205 0 .068-.01.14.01.203.053.164.038.32.002.483-.022.103-.003.215-.003.323 0 .094-.004.188-.004.282 0 .121 0 .243.004.363.006.163.016.326.022.489.006.148-.005.298.016.444.042.286.073.568.034.855-.011.08.002.162.01.243.013.135.038.27.044.405.022.529.006 1.062.068 1.586.047.399-.046.787 0 1.18-.116.424.052.867-.068 1.292a.314.314 0 0 0 .011.163c.05.176.033.35.001.526-.016.092-.01.19-.005.284.009.218.034.435.035.653.006.927.032 1.854 0 2.779-.018.501.012 1 .043 1.5.382-.09.766-.171 1.149-.254.172-.037.338-.102.462-.14.152-.242.25-.458.404-.627.214-.237.238-.507.232-.796-.01-.463-.029-.925-.029-1.388 0-.49.022-.98.028-1.47.002-.203-.021-.407-.017-.61.003-.163.043-.324.044-.487.008-.598 0-1.196.01-1.794.016-.788.058-1.576.063-2.364.007-.953.062-1.906-.02-2.86-.04-.474-.065-.95-.128-1.422a6.191 6.191 0 0 1-.032-1.507c.062-.557.07-1.113.017-1.674-.043-.448-.06-.898-.084-1.347-.006-.1-.009-.2-.013-.301zM47.621 61.8c-.258.113-.533.133-.804.181-.189.034-.374.089-.562.133-.107.025-.214.052-.322.07-.159.028-.264-.057-.344-.18-.05-.075-.056-.164 0-.23.403-.485.521-1.099.772-1.653.016-.037.024-.078.045-.114.173-.3.285-.61.17-.963.036-.447.074-.894.107-1.342a14.72 14.72 0 0 0-.008-1.958c-.059-.953-.12-1.906-.066-2.861.02-.366-.01-.735-.02-1.103-.014-.437-.035-.873-.044-1.309-.017-.804-.034-1.608-.039-2.411-.004-.695.012-1.39.012-2.084 0-.217-.019-.434-.029-.651 0-.041-.005-.083 0-.123.089-.773 0-1.55.022-2.325.008-.285-.03-.572-.03-.857.005-.954.029-1.907.023-2.86-.003-.668-.046-1.336-.066-2.003-.005-.15.005-.3.013-.448l.089-1.795c.003-.08-.01-.163-.015-.244l-.004-.054a11.3 11.3 0 0 0-.742 1.41c-.005.012-.004.028-.01.039-.37.546-.42 1.195-.59 1.806-.13.472-.248.948-.405 1.411-.258.762-.42 1.548-.615 2.326-.183.725-.356 1.452-.532 2.178-.116.475-.24.949-.34 1.428-.126.6-.357 1.17-.517 1.76-.035.131-.085.258-.119.39-.26 1.001-.669 1.954-.966 2.943-.215.714-.42 1.433-.664 2.137-.178.515-.29 1.046-.442 1.567-.062.21-.1.42-.102.64-.014.9-.042 1.799-.045 2.698-.003.64.028 1.28.038 1.921.014.98.064 1.96.03 2.941-.002.054-.005.108-.005.164-.012.856.247 1.637.707 2.363.073.114.136.233.214.366-.184.117-.37.194-.574.235-.312.064-.6.193-.895.306-.526.201-1.067.366-1.6.55-.376.13-.751.264-1.127.398-.052.018-.11.033-.15.067-.301.262-.682.253-1.05.298-.107.013-.211.055-.32.065a.296.296 0 0 1-.185-.049c-.024-.017-.016-.104.004-.147l.065-.146c.01-.002.018-.005.028-.006.366-.045.747-.036 1.049-.298.04-.034.098-.05.15-.068.375-.133.75-.268 1.127-.398.533-.183 1.073-.348 1.599-.549.295-.113.583-.242.895-.306a1.68 1.68 0 0 0 .574-.235c-.077-.133-.141-.252-.213-.366-.46-.726-.72-1.507-.708-2.364l.005-.164c.035-.98-.016-1.96-.03-2.94-.009-.64-.041-1.281-.038-1.921.003-.9.032-1.798.045-2.698.003-.22.04-.43.102-.64.152-.521.264-1.052.443-1.567.243-.704.449-1.423.664-2.137.297-.99.706-1.942.965-2.944.035-.13.084-.258.12-.389.159-.59.39-1.16.516-1.76.1-.48.225-.953.34-1.428.176-.727.35-1.453.532-2.178.196-.778.357-1.564.616-2.326.157-.463.274-.94.405-1.411.17-.61.22-1.26.588-1.806.008-.01.006-.027.012-.039a10.57 10.57 0 0 1 1.08-1.948.391.391 0 0 0-.083-.157c-.233-.25-.409-.552-.706-.747-.085-.055-.142-.153-.226-.247-.042.036-.09.064-.12.104-.493.657-.876 1.376-1.2 2.127-.006.012-.005.028-.012.038-.37.547-.42 1.196-.588 1.807-.131.472-.248.948-.406 1.41-.258.763-.42 1.549-.615 2.326-.183.725-.357 1.452-.532 2.178-.116.476-.24.95-.34 1.428-.126.601-.358 1.17-.517 1.761-.035.13-.085.258-.12.39-.26 1.001-.668 1.954-.965 2.943-.215.714-.42 1.432-.664 2.137-.179.515-.291 1.046-.443 1.567-.061.21-.098.42-.101.64-.014.9-.042 1.798-.046 2.698-.002.64.03 1.28.039 1.92.014.981.064 1.961.03 2.942-.003.054-.005.109-.006.163-.011.857.248 1.638.707 2.363.073.115.137.233.214.367-.184.117-.37.193-.573.235-.312.063-.6.193-.896.306-.526.2-1.066.366-1.598.549-.378.13-.753.265-1.128.398-.052.019-.11.034-.15.068-.302.262-.683.252-1.05.297-.107.014-.211.056-.32.066a.296.296 0 0 1-.185-.05c-.024-.016-.016-.103.003-.147.165-.358.314-.726.51-1.066.27-.463.335-.962.374-1.482.064-.857-.034-1.716.011-2.572.018-.34.034-.679.04-1.019.003-.162-.02-.325-.028-.488-.012-.259-.032-.518-.028-.776.01-.559.02-1.116-.008-1.675-.029-.572-.024-1.145-.02-1.717a.945.945 0 0 0-.053-.317 168.733 168.733 0 0 1-1.319-4.1c-.128-.418-.244-.84-.367-1.26-.235-.8-.467-1.6-.71-2.398a64.02 64.02 0 0 0-.624-1.955c-.274-.804-.57-1.6-.85-2.4a96.96 96.96 0 0 1-.717-2.1c-.09-.277-.254-.51-.401-.754-.099-.164-.226-.31-.328-.472-.272-.43-.534-.865-.81-1.293-.074-.113-.185-.202-.272-.308-.042-.05-.067-.115-.099-.173.093-.1.267.01.317-.16.018-.06.124-.117.199-.13.537-.088 1.011-.35 1.522-.51.801-.25 1.596-.52 2.396-.776.378-.122.768-.213 1.136-.36.264-.105.528-.127.832-.142-.002.066.016.134-.008.182-.06.122-.131.227-.105.382.016.098-.048.208-.072.314-.07.304-.125.611-.209.91-.083.294-.024.572.1.831.145.304.189.627.25.946.053.281.06.57.118.85.068.333.164.662.256.99.174.62.351 1.237.534 1.854.09.301.165.612.3.895.238.501.34 1.038.496 1.56.09.302.189.601.287.9.016.045.052.083.105.168.047-.098.082-.152.098-.211l.358-1.334c-.03-.071-.055-.144-.089-.215-.134-.283-.21-.594-.3-.896-.182-.615-.359-1.234-.533-1.852-.092-.329-.188-.658-.256-.991-.058-.28-.065-.569-.118-.85-.061-.32-.105-.642-.25-.946-.124-.259-.183-.536-.1-.83.084-.3.14-.607.208-.91.025-.106.089-.217.072-.315a.396.396 0 0 1 .031-.227c.156-.028.317-.045.492-.054-.001.066.016.135-.008.183-.06.12-.131.226-.105.381.016.099-.048.209-.072.315-.07.303-.124.61-.208.91-.083.294-.025.571.099.83.146.304.19.627.25.947.054.28.06.57.118.849.069.333.164.662.257.99.174.62.35 1.238.533 1.854.036.118.07.238.105.357l.023-.087c.096-.338.161-.69.353-.994l-.02.088a3.74 3.74 0 0 1 .023-.086c.002-.08-.008-.164.011-.24.078-.302.159-.603.25-.902.26-.858.464-1.732.767-2.578.174-.485.28-.994.41-1.493.14-.539.28-1.079.405-1.622.067-.29.103-.586.154-.889-.26-.28-.512-.553-.77-.819-.042-.043-.127-.045-.183-.078-.043-.026-.097-.067-.103-.108-.007-.04.025-.114.061-.131.159-.076.308-.168.492-.201.324-.06.652-.123.93-.316a.254.254 0 0 1 .112-.048c.419-.042.785-.245 1.18-.358.265-.075.53-.153.795-.224.505-.136 1.015-.256 1.516-.406.421-.127.836-.28 1.246-.438.372-.143.781-.183 1.132-.382a.213.213 0 0 1 .122-.022c.36.032.676-.114.998-.23.83-.296 1.667-.565 2.535-.74.257-.052.502-.148.755-.215.893-.235 1.787-.464 2.68-.698a7.173 7.173 0 0 0 1.133-.383c.3-.135.618-.232.933-.33.407-.125.821-.231 1.23-.353.17-.051.297-.015.46.076.562.313.95.792 1.349 1.267.079.095.163.188.255.272.352.325.548.717.55 1.195.002.272.01.545.007.817l-.056 4.254c-.007.531-.05 1.065-.01 1.595.117 1.554.054 3.106.062 4.659.002.175.041.35.057.524.01.108.015.218.01.326-.095 2.645.013 5.29.023 7.936.005 1.186.028 2.373.042 3.56 0 .04-.007.082.002.122.088.422-.066.776-.314 1.1-.173.228-.348.455-.533.674-.377.449-.762.892-1.144 1.337-.018.02-.033.043-.052.063l-.48.503c-.29.079-.581.167-.876.235-.55.126-1.1.248-1.627.459-.74.296-1.481.59-2.233.857-.518.184-1.053.32-1.58.48-.262.08-.526.157-.784.251-.26.094-.515.179-.801.178-.161 0-.321.066-.48.112-.197.058-.399.11-.586.192zm76.511-22.84c.24-.059.484-.104.726-.157.255-.056.512-.11.766-.172a1.8 1.8 0 0 0 .35-.116c.146-.07.207-.187.164-.333a1.475 1.475 0 0 0-.177-.41c-.186-.272-.393-.53-.595-.792-.157-.202-.25-.416-.243-.678.007-.3-.027-.6-.031-.899-.009-.504-.029-1.008-.006-1.51.026-.599.104-1.194.136-1.792.047-.898.074-1.798.106-2.697.023-.652.083-1.302.21-1.94.078-.4.21-.787.315-1.18.046-.17.08-.343.126-.513.088-.327.157-.663.28-.978.1-.256.172-.515.233-.78.076-.33.154-.66.242-.988.222-.826.45-1.651.674-2.478.148-.55.262-1.111.444-1.65.244-.725.376-1.476.557-2.214.204-.831.438-1.653.666-2.478.144-.523.286-1.046.381-1.582.047-.266.136-.526.21-.787.082-.287.176-.571.25-.86.14-.55.212-1.12.485-1.632.03-.058.03-.132.054-.195.144-.395.26-.797.502-1.154.252-.37.463-.767.691-1.153a.392.392 0 0 0-.421-.13c-.358.097-.715.195-1.07.305-.827.255-1.651.524-2.48.777-.895.274-1.794.535-2.69.807-.07.021-.128.084-.207.138.051.078.078.143.126.186.174.157.353.31.534.459.125.104.282.18.302.278-.088.435-.156.794-.235 1.15-.13.595-.222 1.198-.398 1.782-.173.573-.333 1.15-.48 1.73-.24.95-.47 1.902-.691 2.855-.07.301-.134.603-.199.905-.194-.627-.367-1.26-.565-1.886-.264-.836-.54-1.668-.884-2.477a.815.815 0 0 1-.063-.516c.157-.705.35-1.398.603-2.074.027-.073.035-.153.054-.24-.156-.105-.297-.094-.447-.039a.306.306 0 0 0-.02.008 15.486 15.486 0 0 0-.6 2.061.82.82 0 0 0 .064.517c.343.81.62 1.641.884 2.477.197.626.37 1.26.565 1.887.09.289.182.577.282.862-.05.235-.1.47-.156.703-.064.272-.12.555-.321.837-.072-.25-.127-.458-.191-.663-.138-.443-.246-.893-.432-1.325-.179-.414-.303-.85-.437-1.282-.195-.627-.368-1.261-.566-1.887-.264-.836-.541-1.668-.884-2.477a.815.815 0 0 1-.063-.516c.157-.705.35-1.398.602-2.075.028-.072.036-.152.055-.239-.157-.105-.298-.095-.447-.039-.5.186-1.009.353-1.5.558-.563.235-1.15.374-1.742.513-.281.065-.559.147-.836.228-.383.112-.763.233-1.146.346-.33.098-.663.187-.991.288-.159.049-.191.197-.079.324.082.092.172.178.26.266.405.413.77.863 1.228 1.226.208.165.364.373.427.638.032.132.082.261.125.391.252.768.494 1.54.76 2.302.145.414.28.83.408 1.247.295.969.579 1.941.953 2.886.186.47.365.946.463 1.444.016.08.048.156.073.235l.36 1.133c.09.273.165.551.271.818.141.355.267.715.408 1.07.234.582.39 1.195.576 1.797.113.365.225.73.33 1.099.081.288.136.584.226.87.071.224.11.445.1.68-.057 1.484-.106 2.97-.158 4.454-.025.708-.055 1.416-.075 2.125-.005.176.025.355-.05.523.073.208-.05.364-.138.53-.019.035-.023.078-.034.117-.07.22-.133.442-.207.66-.11.322-.232.64-.338.962-.11.334-.018.44.322.384.204-.034.409-.069.608-.121.427-.113.848-.242 1.275-.356.492-.13.986-.256 1.481-.377zm-4.253 2.08a.348.348 0 0 1-.126-.105c-.15-.211-.315-.415-.436-.641-.115-.214-.255-.42-.29-.674-.03-.227-.1-.45-.155-.675-.11-.437-.258-.869-.328-1.312-.152-.958-.385-1.897-.642-2.832-.119-.434-.218-.873-.312-1.313-.129-.6-.244-1.202-.366-1.804-.097-.482-.226-.957-.263-1.45a8.682 8.682 0 0 0-.208-1.37c-.143-.596-.254-1.201-.378-1.802-.069-.335-.155-.667-.197-1.004-.102-.825-.18-1.653-.273-2.479a2.607 2.607 0 0 0-.093-.48 5.963 5.963 0 0 1-.224-1.244 5.9 5.9 0 0 0-.192-1.087c-.16-.565-.358-1.121-.43-1.708-.02-.162-.051-.323-.079-.485-.089-.51-.164-1.024-.271-1.531-.091-.426-.12-.862-.278-1.278-.134-.348-.19-.71-.01-1.069.049-.095.057-.21.09-.312.078-.247.162-.49.242-.736.036-.113.125-.239.033-.345-.11-.127-.257-.041-.387-.008l-.032.009a.726.726 0 0 0-.024.06c-.08.246-.163.49-.242.737-.033.103-.04.217-.089.312-.182.358-.125.72.009 1.07.158.414.187.85.278 1.277.108.507.183 1.02.271 1.531.029.162.059.323.079.485.072.587.271 1.143.431 1.708.1.358.158.72.191 1.087.037.42.098.838.224 1.245.048.155.075.318.093.48.093.825.172 1.653.274 2.478.042.337.128.67.197 1.004.123.601.235 1.206.378 1.803.109.452.172.91.207 1.369.038.492.166.968.263 1.45.122.601.237 1.204.366 1.804.095.44.194.879.313 1.313.257.935.49 1.874.642 2.832.07.443.217.875.327 1.312.056.224.125.448.156.675.034.255.175.46.29.673.12.226.285.43.436.64a.349.349 0 0 0 .125.108c.218.107.324.291.387.532-.056.025-.111.06-.173.078-.742.212-1.482.43-2.227.63-.954.255-1.864.63-2.8.935l-.117.276c-.019.044-.017.096-.033.191l.502-.164c.956-.308 1.883-.694 2.857-.956.745-.2 1.486-.417 2.228-.63.06-.017.117-.052.172-.077-.063-.24-.168-.425-.386-.532zm-44.11-12.155a35.897 35.897 0 0 1-.701-3.37c-.032-.21-.158-.335-.318-.471l-.132.046c.019.043.032.09.04.142.174 1.134.419 2.255.7 3.37.144.569.28 1.14.412 1.712.023.104.014.215.02.316-.163.092-.322.07-.476.047-.142.048-.28.029-.415.008-.425-.067-.854-.132-1.25-.304a1.13 1.13 0 0 0-.302-.08c-.027.005-.053.007-.08.013-.51.123-1.03.224-1.515.409-.566.216-1.155.353-1.73.534-.564.177-1.139.325-1.71.481-.465.127-.91.303-1.381.471a198.463 198.463 0 0 0-.037 5.796c-.317.064-.633.128-.95.188-.088.016-.183-.004-.303-.008-.015-2.289-.022-4.56.034-6.844.471-.168.917-.344 1.382-.47.57-.157 1.145-.305 1.71-.482.575-.181 1.163-.318 1.73-.534.485-.185 1.005-.286 1.514-.409.256-.061.51-.058.77.055.397.172.826.237 1.25.304.162.025.33.054.503-.043-.005-.101.004-.212-.02-.315a85.424 85.424 0 0 0-.411-1.714 35.924 35.924 0 0 1-.7-3.369c-.032-.21-.158-.335-.319-.471-.182.064-.358.138-.542.186-.184.05-.376.068-.564.108-.08.016-.16.045-.236.076-.395.163-.814.251-1.226.357-.613.158-1.233.291-1.833.497-.052.017-.102.044-.155.056-.47.102-.94.209-1.413.298-.299.056-.574.18-.864.253-.828.21-1.643.467-2.483.627-.27.051-.514.18-.775.251-.638.176-1.265.377-1.892.585-.22.073-.394.178-.565.336.011.079 0 .17.038.234.18.292.355.59.568.86.18.23.318.481.48.72a.751.751 0 0 1 .131.502c-.02.257-.061.521-.026.774.047.34.047.679.044 1.017-.007.667-.03 1.333-.043 2-.005.285-.014.572.004.856.031.478.009.951-.042 1.425a3.671 3.671 0 0 0-.026.447c.004.381.033.763.024 1.144-.017.708-.053 1.415-.083 2.123a50.312 50.312 0 0 0-.029 2.978c.008.436.005.872.01 1.309.003.34.01.68.016 1.021.012.763.023 1.525.038 2.288.01.544.03 1.089.039 1.633.013.926.002 1.852.034 2.777.025.686-.055 1.359-.118 2.036-.053.567-.141 1.134-.074 1.707a.842.842 0 0 1-.112.55c-.213.35-.334.741-.502 1.112-.077.17-.164.338-.247.508.111.143.244.152.381.102.18-.066.353-.15.532-.22.64-.252 1.287-.477 1.952-.665.885-.252 1.762-.534 2.642-.807 1.288-.4 2.573-.81 3.861-1.208.381-.118.77-.216 1.154-.322.225-.062.451-.12.677-.183.133-.037.262-.087.397-.114.342-.07.646-.23.962-.366a.324.324 0 0 0 .213-.275c.04-.324.098-.646.124-.972.055-.692.088-1.387.144-2.078.064-.788.145-1.573.214-2.36a4.43 4.43 0 0 0 .005-.53.195.195 0 0 0-.072-.135c-.063-.043-.132-.01-.187.036-.031.026-.06.055-.088.085-.327.33-.655.658-.98.99a.852.852 0 0 1-.335.226c-1.105.381-2.176.853-3.338 1.08-.522.103-1.037.237-1.552.375-.034-2.012-.042-5.257.006-5.546.049-.025.107-.064.17-.085.182-.061.366-.12.55-.173.65-.187 1.298-.37 1.947-.555.066-.018.131-.055.197-.055a5.64 5.64 0 0 1 .36.005c-.248-.206-.54-.26-.842-.273-.041.012-.083.028-.125.04-.648.185-1.297.368-1.945.555-.185.053-.37.11-.552.173-.063.021-.12.06-.17.085-.05.31-.038 3.987.002 5.936-.19.05-.381.103-.573.151-.21.054-.423.1-.637.15-.073-.47-.114-6.699-.048-7.105.05-.026.107-.064.17-.085.183-.062.367-.12.552-.174.648-.186 1.297-.37 1.946-.554.066-.019.13-.055.197-.056.452-.004.906-.003 1.255.364a.915.915 0 0 0 .224-.617c-.002-.45.007-.9-.003-1.349-.031-1.335-.1-2.671-.006-4.005.007-.105.019-.22-.083-.302-.171-.061-.293.035-.416.12-.258.18-.511.369-.771.545-.283.19-.564.375-.92.434-.184.03-.366.068-.548.102-.008-1.814-.007-3.623.037-5.437.471-.167.917-.344 1.382-.47.571-.157 1.145-.305 1.71-.482.575-.18 1.163-.318 1.73-.534.485-.185 1.005-.286 1.514-.409.256-.061.511-.058.77.055.397.172.826.237 1.25.304.163.025.33.055.503-.043-.005-.101.004-.212-.02-.315a85.424 85.424 0 0 0-.41-1.713zm-4.953 14.781c-.022.047-.038.095-.07.14.272.032.529.12.745.346a.916.916 0 0 0 .224-.616c-.001-.45.007-.9-.003-1.35-.032-1.335-.1-2.67-.006-4.005.007-.105.018-.219-.082-.302-.131-.046-.234 0-.33.061-.089 1.32-.023 2.642.008 3.964.01.45.002.9.004 1.348a.919.919 0 0 1-.224.617 1.05 1.05 0 0 0-.266-.203zm4.695 4.897c-.063-.045-.131-.01-.186.035-.032.026-.06.056-.089.085l-.066.066c0 .065.005.13-.001.195-.069.787-.15 1.572-.215 2.36-.056.692-.088 1.386-.143 2.079-.027.325-.084.647-.124.972a.322.322 0 0 1-.214.274c-.315.135-.62.297-.962.366-.135.028-.264.078-.397.115-.225.062-.451.12-.676.182-.385.106-.773.204-1.154.323-1.288.398-2.574.806-3.862 1.207-.88.274-1.756.556-2.642.807-.664.189-1.312.413-1.951.666-.13.05-.258.106-.386.16l-.117.24c.11.143.243.153.38.102.18-.066.354-.149.532-.22.64-.252 1.288-.476 1.952-.665.886-.251 1.763-.533 2.642-.807 1.288-.4 2.573-.809 3.862-1.207.38-.119.768-.217 1.153-.323.226-.061.452-.12.677-.182.133-.037.262-.087.397-.115.342-.069.646-.23.962-.365a.324.324 0 0 0 .213-.275c.04-.324.098-.647.124-.972.056-.693.087-1.387.144-2.08.064-.787.146-1.572.214-2.359a4.43 4.43 0 0 0 .006-.53.195.195 0 0 0-.073-.134zm59.631-40.478c.11-.186.211-.382.285-.585.1-.27.234-.52.398-.753.162-.23.228-.494.268-.76.058-.382-.13-.54-.513-.438-.731.196-1.467.37-2.178.633-.298.11-.457.289-.49.583-.033.295-.083.589.018.887a.669.669 0 0 1 .029.202c-.023.003-.044.003-.067.01l-.092.025c-.19.33-.373.661-.587.974-.242.356-.359.759-.502 1.154-.024.063-.024.137-.055.196-.273.51-.345 1.08-.485 1.63-.073.29-.168.574-.25.861-.073.261-.162.521-.209.787-.095.536-.237 1.06-.382 1.583-.227.824-.461 1.646-.665 2.478-.181.737-.313 1.488-.558 2.213-.18.54-.295 1.1-.444 1.65-.223.827-.452 1.651-.673 2.478-.088.328-.166.658-.243.989a5.54 5.54 0 0 1-.232.779c-.123.315-.192.65-.28.978-.046.17-.08.343-.126.513-.105.393-.238.781-.316 1.18a12.333 12.333 0 0 0-.21 1.94c-.03.9-.059 1.8-.106 2.697-.031.598-.11 1.193-.136 1.792-.021.502-.002 1.007.006 1.51.005.3.039.6.031.899-.006.262.087.476.244.678.202.262.408.52.595.792.082.122.134.269.176.41.043.147-.017.263-.164.333-.11.052-.23.087-.35.116-.254.062-.51.116-.766.172-.241.053-.485.099-.724.158-.495.122-.99.247-1.482.377-.426.114-.848.243-1.275.356-.176.047-.357.077-.537.107-.06.257.034.347.338.297.204-.033.41-.068.608-.121.427-.113.849-.242 1.275-.355.492-.131.987-.256 1.482-.378.24-.06.483-.105.725-.158.256-.056.512-.11.766-.172a1.8 1.8 0 0 0 .35-.116c.146-.07.207-.186.164-.332a1.475 1.475 0 0 0-.177-.41c-.186-.272-.392-.531-.595-.793-.157-.201-.25-.416-.243-.678.007-.299-.026-.599-.031-.898-.008-.504-.028-1.009-.006-1.511.026-.599.105-1.193.136-1.792.047-.898.074-1.797.106-2.696.023-.653.084-1.302.21-1.941.078-.399.21-.787.316-1.18.045-.17.079-.343.125-.513.089-.327.157-.663.28-.978.1-.256.172-.515.233-.78.077-.33.155-.66.242-.988.222-.826.451-1.651.674-2.477.148-.55.263-1.112.444-1.65.244-.726.376-1.477.557-2.214.204-.832.438-1.654.666-2.478.144-.524.286-1.047.381-1.582.047-.267.136-.527.21-.787.082-.288.176-.572.25-.861.14-.55.212-1.12.485-1.631.03-.059.03-.133.054-.196.144-.395.26-.798.502-1.154.1-.146.19-.298.28-.45-.023.3-.044.601-.069.902-.027.338-.027.682-.094 1.013-.087.43-.08.863-.091 1.297 0 .037.021.075.035.119l.307.01c.167-.257.324-.478.459-.713.14-.247.257-.508.39-.76.075-.143.166-.279.245-.421.164-.295.348-.583.48-.892.173-.4.354-.792.578-1.166zM25.29 67.96c.795-.268 1.589-.538 2.384-.804.09-.03.185-.052.28-.072.417-.092.836-.174 1.25-.274.442-.108.872-.264 1.317-.338.274-.046.504-.213.79-.207.122.001.195-.102.216-.217.058-.33.184-.647.147-.998-.022-.2.016-.408.049-.608.06-.376.15-.747.204-1.124.073-.513.175-1.017.323-1.514.074-.246.124-.5.17-.753.046-.252.067-.51.26-.763-.129.005-.238-.023-.278.016-.171.167-.398.238-.592.363-.357.23-.714.458-1.067.694-.429.287-.914.432-1.412.545-.59.135-1.186.252-1.776.389-.2.046-.388.135-.585.193-.42.125-.84.246-1.26.37-.087-.29-.065-.589-.08-.881-.037-.734-.048-1.47-.058-2.206-.02-1.377-.035-2.753-.046-4.13-.014-1.746-.017-3.49-.034-5.235-.014-1.336-.056-2.673-.058-4.009-.002-1.089.021-2.179.065-3.266.02-.501.016-1.008.123-1.503a.695.695 0 0 0 .021-.283c-.05-.23.034-.426.109-.63a3.35 3.35 0 0 1 .377-.766c.062-.09.109-.189.159-.285.03-.06.06-.122-.02-.2-.16-.019-.32.027-.48.079-.022.04-.042.084-.068.123a3.35 3.35 0 0 0-.378.765c-.075.204-.158.402-.108.631a.695.695 0 0 1-.022.283c-.106.495-.102 1.002-.122 1.503a78.584 78.584 0 0 0-.066 3.266c.003 1.336.045 2.672.058 4.009.017 1.745.02 3.49.035 5.235.01 1.376.026 2.753.045 4.13.011.736.021 1.47.059 2.206.016.32-.02.65.101.965.019.047-.05.119-.048.178.001.049.005.098.007.146-.203.058-.405.118-.607.177a.838.838 0 0 1-.604-.037c-.019-.395-.04-.774-.052-1.154-.002-.06.067-.131.049-.179-.12-.314-.085-.644-.102-.965-.037-.734-.048-1.47-.059-2.205-.019-1.377-.034-2.753-.045-4.13-.014-1.746-.017-3.49-.034-5.236-.014-1.336-.056-2.672-.058-4.008-.002-1.09.022-2.18.065-3.267.02-.5.015-1.007.122-1.502a.694.694 0 0 0 .022-.283c-.05-.23.034-.427.108-.631a3.35 3.35 0 0 1 .378-.765c.061-.09.108-.19.158-.285.03-.06.061-.123-.019-.201-.181-.02-.363.037-.543.098-.169.057-.338.113-.506.171-.168.059-.336.119-.503.182-.116.044-.227.097-.342.142-.63.24-1.265.463-1.928.604-.054.012-.106.032-.159.05-.416.142-.832.284-1.249.428-.167.058-.333.12-.518.187.093.25.232.45.37.653.18.26.352.525.532.784a.97.97 0 0 1 .168.618 8.01 8.01 0 0 0 .006.98c.051.626.085 1.251.067 1.878-.012.38-.034.762-.044 1.143-.007.285-.003.57-.003.857 0 .136-.002.272.005.408.035.777.05 1.552.011 2.328-.008.162-.012.329.014.489.073.46.067.922.062 1.384-.005.421-.037.842-.039 1.264-.003.532.032 1.064.015 1.595-.022.681-.007 1.36.018 2.042.007.204-.014.407-.022.611-.007.177-.03.354-.02.529.05.884.068 1.768.129 2.652.048.706.015 1.417.017 2.126 0 .232-.012.464-.004.695.013.394.052.789.054 1.183.004.587-.02 1.173-.025 1.759a1.183 1.183 0 0 1-.124.55c-.08.155-.145.321-.196.49-.221.728-.436 1.46-.65 2.19-.03.1-.046.203-.072.318.168.052.295.008.426-.031a182.43 182.43 0 0 1 1.589-.458c1.39-.396 2.782-.79 4.151-1.251zm8.796-5.758c.046-.252.066-.509.26-.763-.13.005-.238-.022-.278.017-.103.1-.226.164-.35.228l-.042.235a6.987 6.987 0 0 1-.17.754c-.149.496-.25 1-.324 1.513-.053.376-.143.748-.204 1.124-.032.2-.07.409-.048.608.037.35-.089.668-.148.999-.02.114-.093.218-.215.216-.286-.005-.517.161-.79.207-.446.075-.876.23-1.316.338-.415.1-.835.183-1.252.274-.094.02-.188.042-.28.072-.795.267-1.589.536-2.383.804-1.37.46-2.761.854-4.152 1.251-.51.145-1.02.292-1.529.441l-.004.013c-.03.1-.046.203-.071.318.167.052.294.009.426-.03a182.43 182.43 0 0 1 1.588-.459c1.39-.397 2.782-.79 4.151-1.25.795-.269 1.59-.538 2.384-.805.09-.03.186-.051.28-.072.417-.091.837-.173 1.25-.274.442-.107.872-.263 1.318-.338.273-.046.503-.212.789-.207.122.002.195-.102.216-.216.058-.331.184-.648.147-1-.02-.198.017-.406.049-.607.061-.376.15-.747.204-1.124.073-.512.175-1.017.323-1.513.074-.246.124-.5.17-.754zm-24.702 5.69a23.504 23.504 0 0 1-.04-.733c-.014-.434.02-.87.016-1.306-.004-.558-.03-1.115-.038-1.673-.007-.504.001-1.008-.001-1.512-.005-.79.007-1.581-.026-2.37-.042-1.049-.09-2.096.001-3.142.005-.054-.007-.109-.01-.163-.008-.163-.02-.325-.022-.488-.003-.218.008-.436.004-.654-.007-.463-.034-.925-.024-1.388.008-.421-.072-.842-.016-1.263.006-.04-.006-.081-.008-.122-.01-.217-.023-.435-.026-.653-.003-.272.006-.545.007-.817.003-.38-.013-.762.009-1.142.02-.338.066-.677.126-1.01.062-.34.248-.594.598-.713.286-.096.566-.21.85-.312.31-.112.62-.224.932-.33.103-.034.214-.073.32-.067.091.006.18 0 .27-.008l.001-.06-.004-.392c-.247-.208-.53-.294-.788-.427a.315.315 0 0 0-.2-.021 1.78 1.78 0 0 1-.535.04c-.105-.006-.217.033-.32.067-.312.106-.622.217-.932.33-.283.102-.563.216-.85.312-.35.118-.536.372-.597.712-.06.334-.107.673-.126 1.011-.023.38-.007.76-.01 1.142-.001.272-.01.545-.006.817.001.218.016.435.026.653.001.04.013.082.008.122-.057.42.024.842.015 1.263-.01.462.018.925.025 1.388.003.218-.007.436-.005.654.002.162.015.325.023.487.003.055.014.11.01.163-.091 1.047-.044 2.094-.001 3.142.031.79.02 1.58.025 2.37.003.505-.006 1.009.001 1.513.008.557.034 1.115.039 1.673.004.435-.03.871-.016 1.306.02.585.07 1.17.107 1.753.189.11.371.111.53.028.178-.092.368-.116.555-.159.034-.008.068-.014.103-.021zm-.092 1.78v-.002.001zm3.293 1.975c-1.883.53-3.768 1.058-5.649 1.596-.296.084-.595.097-.896.107a.71.71 0 0 1-.528-.202c-.344-.319-.732-.59-1.05-.935-.02-.02-.038-.044-.062-.056-.215-.101-.295-.256-.266-.495.02-.157-.039-.321-.045-.483-.012-.285-.009-.57-.015-.856-.002-.11.01-.225-.025-.325-.1-.293-.08-.592-.091-.89-.022-.627-.053-1.254-.072-1.88-.014-.505-.002-1.009-.026-1.512-.03-.64-.084-1.278-.126-1.918-.034-.516-.067-1.033-.098-1.55-.007-.122-.015-.246-.003-.367.082-.95.009-1.905.033-2.857.015-.583.014-1.172.132-1.748.013-.066.023-.135.023-.203.007-.64.012-1.28.015-1.92.001-.15-.02-.302-.006-.45.063-.625.002-1.25-.019-1.876a7.966 7.966 0 0 1 .039-1.06c.029-.286.01-.57.008-.855-.003-.598-.01-1.198-.009-1.797.002-.41.018-.818.025-1.227.002-.206.028-.406.135-.588.16-.277.164-.603.277-.894.058-.151.122-.3.193-.446.13-.27.263-.538.403-.803a9.5 9.5 0 0 1 .378-.675c.2-.316.48-.528.834-.687.729-.328 1.5-.54 2.246-.818.256-.097.507-.21.768-.296.471-.154.947-.292 1.42-.438.17-.053.339-.116.51-.169.17-.053.341-.11.516-.145.435-.086.854-.219 1.262-.386.19-.079.381-.16.577-.224.355-.118.687-.108 1.011.14a4.9 4.9 0 0 1 .47.398c.216.213.455.402.684.602.176.155.346.317.526.469a.672.672 0 0 1 .226.378c.049.204.057.405.044.608-.03.475-.078.948-.1 1.423-.018.407-.006.816-.015 1.224-.007.313-.027.625-.039.938-.007.177-.015.354-.014.531.002.218-.01.439.026.651.039.222.258.35.362.542.086.155.19.303.258.464.107.249.038.384-.234.452-.414.103-.832.192-1.25.278-.581.12-1.166.22-1.744.348-.375.084-.741.203-1.112.303-.107.029-.215.05-.322.075-.341.08-.341.08-.539-.28.166-.296.325-.61.513-.905.145-.227.222-.46.218-.729-.003-.3.021-.598-.046-.896a1.601 1.601 0 0 0-.19.052c-.313.105-.623.217-.933.329-.284.103-.563.216-.85.312-.35.119-.536.372-.597.713-.06.333-.107.672-.126 1.01-.022.38-.007.761-.01 1.142 0 .272-.01.545-.006.817.002.218.016.436.026.653.001.04.013.083.008.122-.057.421.024.842.015 1.264-.01.462.018.924.025 1.387.003.218-.007.436-.005.654.002.163.015.325.023.488.003.054.014.11.01.163-.091 1.046-.043 2.093-.001 3.141.032.79.02 1.58.025 2.371.003.504-.006 1.008.001 1.512.008.558.034 1.115.04 1.673.003.436-.031.872-.017 1.306.004.123.016.245.022.367.268-.055.534-.11.797-.183.477-.132.942-.3 1.402-.45.092-.209.16-.357.223-.507.08-.19.12-.385.108-.596-.017-.326-.011-.654-.022-.98a29.415 29.415 0 0 0-.05-1.017.63.63 0 0 0-.08-.23 3.075 3.075 0 0 0-.515-.744c-.106-.11-.205-.222-.179-.408.079-.025.154-.052.231-.072.307-.08.614-.158.922-.233.628-.154 1.258-.302 1.886-.459.587-.146 1.188-.239 1.764-.43.156-.05.314-.096.487.002-.045.247-.139.472-.22.7-.04.116-.081.231-.128.344-.188.45-.186.93-.2 1.404-.01.434-.068.866-.034 1.302.03.38.045.76.053 1.14.007.423.003.845-.005 1.267-.003.163-.02.327-.05.487a.81.81 0 0 1-.113.256c-.167.279-.357.547-.508.835-.336.641-.765 1.22-1.175 1.814-.078.114-.198.144-.314.178-.49.144-.98.28-1.471.418zm5.655-21.273c-.105-.192-.324-.32-.362-.541-.037-.213-.025-.434-.026-.651-.002-.177.006-.354.013-.531.013-.313.033-.625.04-.938.008-.409-.004-.818.015-1.225.021-.475.069-.948.1-1.423a2.002 2.002 0 0 0-.045-.607.672.672 0 0 0-.226-.379c-.179-.152-.35-.313-.526-.468-.228-.2-.468-.39-.683-.602a4.913 4.913 0 0 0-.471-.398 1.021 1.021 0 0 0-.208-.123c.093.075.183.152.27.237.215.213.455.402.682.602.176.156.347.317.526.469.122.103.19.223.226.379.05.203.058.404.045.607-.031.475-.078.948-.1 1.423-.018.407-.006.816-.015 1.224-.007.314-.027.626-.04.939-.007.177-.014.354-.013.53.002.218-.01.439.026.652.038.22.257.349.362.54.085.156.19.304.258.466.106.248.038.383-.235.45a31.32 31.32 0 0 1-1.25.28c-.58.12-1.165.22-1.743.348-.375.083-.741.202-1.113.302-.106.03-.214.05-.322.075l-.116.026c.184.334.194.335.526.257.107-.025.215-.046.322-.074.37-.101.738-.22 1.113-.303.578-.128 1.162-.229 1.742-.348.419-.086.837-.176 1.251-.279.272-.068.341-.203.235-.451-.07-.162-.174-.31-.258-.465zm.175 12.28c-.044.247-.139.472-.219.7-.04.115-.082.23-.13.344-.187.45-.185.93-.198 1.404-.011.433-.07.865-.034 1.301.03.38.045.761.052 1.141.007.422.003.845-.005 1.267-.003.162-.02.326-.05.486a.822.822 0 0 1-.112.256c-.168.28-.358.547-.509.835-.336.641-.765 1.22-1.175 1.814-.078.114-.198.144-.314.178-.49.144-.98.28-1.471.418-1.883.531-3.767 1.058-5.648 1.596-.297.085-.596.097-.897.108a.71.71 0 0 1-.528-.202c-.03-.028-.063-.053-.094-.08.051-.002.1-.008.15-.011.022 0 .04.01.062.01.302-.011.6-.023.898-.108 1.88-.539 3.764-1.065 5.647-1.596.49-.138.982-.274 1.471-.418.116-.034.237-.064.315-.178.41-.593.838-1.173 1.175-1.814.15-.288.34-.556.508-.835a.823.823 0 0 0 .112-.256c.03-.16.047-.324.05-.487.009-.422.013-.844.005-1.266-.007-.38-.022-.761-.052-1.14-.035-.437.023-.869.035-1.302.012-.475.011-.954.199-1.404.047-.113.088-.229.128-.344.05-.139.1-.277.144-.42.155-.05.313-.096.485.002zM150.474.565c-.247.247-.37.545-.37.895 0 .352.122.653.368.901s.545.373.898.373c.352 0 .651-.125.898-.373.246-.248.37-.549.37-.901 0-.35-.124-.648-.37-.895a1.222 1.222 0 0 0-.898-.373c-.35 0-.649.124-.896.373zm1.94 1.938a1.422 1.422 0 0 1-1.044.433c-.409 0-.756-.144-1.043-.433a1.425 1.425 0 0 1-.428-1.043c0-.405.144-.75.432-1.038a1.417 1.417 0 0 1 1.039-.428c.408 0 .756.143 1.044.428.288.286.432.632.432 1.038 0 .407-.144.755-.432 1.043zm-.766-1.6c-.072-.04-.187-.06-.345-.06h-.243v.585h.257c.12 0 .211-.012.272-.036.11-.044.166-.128.166-.253 0-.117-.035-.196-.107-.236zm-.307-.254c.201 0 .349.019.442.058.168.07.252.205.252.408 0 .145-.053.25-.16.319a.62.62 0 0 1-.234.078c.127.02.22.073.28.158a.442.442 0 0 1 .087.25v.119c0 .037.002.077.005.12a.26.26 0 0 0 .014.084l.01.02h-.268l-.004-.016a.39.39 0 0 1-.004-.018l-.006-.052v-.128c0-.187-.05-.31-.152-.37-.06-.036-.166-.053-.318-.053h-.225v.637h-.285V.649h.566z"/>
        <path fill="#A89968" d="M105.013 50.563c0 .006-.005.012 0 .018v.03c.006.011.006.029.006.029.006.011.012.017.012.023.006.018.012.03.018.041.006.012.006.018.012.03.005.005.011.017.017.023a.103.103 0 0 1 .024.029c.011.012.017.023.029.03a.081.081 0 0 0 .024.017c.005.005.017.017.029.023.012.006.018.012.03.012a.055.055 0 0 0 .04.017c.006.006.012.006.018.012.017 0 .03.006.04.006a.075.075 0 0 0 .036.005c.012 0 .018.006.03.006h38.578a.366.366 0 0 0 0-.731h-30.364l28.714-2.564a.363.363 0 0 0 .329-.398.368.368 0 0 0-.364-.334c-.012 0-.024 0-.03.006l-28.144 2.506 28.115-4.888a.365.365 0 0 0 .3-.422.36.36 0 0 0-.359-.304c-.023 0-.04 0-.064.006l-28.573 4.97 33.136-8.816a7.382 7.382 0 0 0-1.75 1.996c-.922 1.58-1.18 3.39-.723 5.087.758 2.815 3.477 4.296 6.466 3.524.011 0 .023-.006.035-.006 2.06-.55 3.323-2.564 2.824-4.507a2.594 2.594 0 0 0-1.298-1.633 2.947 2.947 0 0 0-2.143-.252c-1.133.287-1.826 1.399-1.55 2.464.1.38.34.697.687.901.225.134.533.199.793.218.382.03.847-.163.832-.61a.574.574 0 0 0-.568-.561.575.575 0 0 0-.552.415.66.66 0 0 1-.147-.07.736.736 0 0 1-.358-.469c-.182-.685.282-1.398 1.033-1.597a2.227 2.227 0 0 1 1.639.181c.475.263.816.685.945 1.188.41 1.58-.675 3.226-2.349 3.659-2.642.679-4.944-.562-5.607-3.027-.406-1.516-.177-3.131.651-4.548.875-1.492 2.349-2.622 4.07-3.137l.287-.076c.018 0 .03-.012.047-.024l.024-.005c.188-.047.299-.24.252-.428a.357.357 0 0 0-.387-.257c-.012 0-.018-.006-.03-.006a.244.244 0 0 0-.094.017l-44.397 11.813c-.012 0-.018.006-.024.012-.017.005-.029.005-.04.011-.013.006-.018.012-.03.018-.006.006-.018.012-.024.017-.011.006-.017.012-.03.023-.01.007-.017.018-.028.024-.006.011-.012.017-.018.029-.012.006-.012.012-.018.023-.011.012-.017.024-.023.036-.006.011-.012.017-.012.035a.045.045 0 0 0-.012.029c0 .006-.006.018-.006.03-.006.011-.006.029-.006.04 0 .006-.005.018-.005.024 0 .006.005.011.005.017M48.605 26.488c0 .006-.005.017-.005.023 0 .012 0 .03-.006.041 0 .012-.006.024-.006.03a.045.045 0 0 1-.012.029c0 .017-.006.023-.012.035-.006.012-.012.023-.023.035-.006.012-.006.018-.018.024-.006.011-.012.017-.018.029-.011.006-.017.017-.029.023-.012.012-.018.018-.03.024-.005.006-.017.011-.023.017-.012.006-.017.012-.03.018-.011.006-.023.006-.04.012-.006.005-.012.011-.024.011L3.932 38.652a.256.256 0 0 1-.094.017c-.012 0-.018-.006-.03-.006a.358.358 0 0 1-.387-.257.351.351 0 0 1 .252-.427l.024-.006c.017-.012.03-.024.047-.024l.287-.076c1.72-.515 3.195-1.645 4.07-3.138.828-1.416 1.057-3.032.651-4.548-.663-2.464-2.965-3.705-5.607-3.026-1.674.434-2.76 2.078-2.349 3.659.13.503.47.924.945 1.188a2.23 2.23 0 0 0 1.638.182c.752-.2 1.216-.914 1.034-1.599a.738.738 0 0 0-.358-.468.686.686 0 0 0-.147-.07.575.575 0 0 1-.552.416.575.575 0 0 1-.569-.562c-.014-.447.451-.639.833-.61.259.019.568.084.793.217.346.205.587.521.687.902.276 1.065-.417 2.177-1.55 2.464a2.95 2.95 0 0 1-2.143-.252 2.597 2.597 0 0 1-1.298-1.633c-.5-1.943.763-3.956 2.824-4.507.012 0 .024-.006.035-.006 2.99-.772 5.708.708 6.466 3.524.457 1.697.2 3.506-.723 5.087a7.388 7.388 0 0 1-1.75 1.996l33.136-8.816-28.573 4.97c-.024.006-.04.006-.064.006a.36.36 0 0 1-.359-.305.365.365 0 0 1 .3-.421l28.114-4.888-28.144 2.506c-.005.005-.017.005-.029.005a.369.369 0 0 1-.364-.333.364.364 0 0 1 .329-.398L40.02 26.85H9.657a.367.367 0 0 1-.37-.363c0-.205.164-.369.37-.369h38.578c.012 0 .018.006.03.006.011 0 .023 0 .035.006.012 0 .023.006.04.006.007.006.013.006.019.012.017 0 .029.005.04.017.012 0 .018.006.03.012a.128.128 0 0 1 .03.023c.011.006.017.012.023.018.012.006.018.017.03.03.005.01.011.017.023.028.006.006.012.018.017.024.006.012.006.017.012.03.006.01.012.023.018.04 0 .006.006.012.012.024 0 0 0 .017.006.029v.03c.005.004 0 .01 0 .016s.005.012.005.018"/>
    </g>
</svg>
