<svg id="Layer_1" data-name="Layer 1" xmlns="http://www.w3.org/2000/svg" viewBox="0 0 871.21 197.94"><title>Tarento_logo</title><path d="M948.12,381c-.82,3.33-1.45,6.72-2.51,10-6.39,19.66-19.4,32.4-40,35.79-25.69,4.22-50.67-9.83-57.41-38.37C845,375,845.55,361.75,851.45,349a49,49,0,0,1,48.32-28.38c19.73,1.41,34,11,43.19,28.33a44.64,44.64,0,0,1,4.8,15.87c0,.28.06.55.36.68Zm-11.62-7.65a60.63,60.63,0,0,0-.44-6.87c-2.53-20.36-18.77-34.88-39.26-34.87-14.52,0-26.2,5.77-33,18.81-8.06,15.42-7.68,31.38.55,46.62,12.12,22.42,44.11,26,61.25,7.06C933.47,395.38,936.29,384.8,936.5,373.33Z" transform="translate(-76.91 -285.51)" fill="#18293d"/><path d="M677.84,342.66c.18,3.59.27,7.18.56,10.77.83,10.08.58,20.18.6,30.28q0,18.39,0,36.79c0,4.69-3.13,7.36-7.51,6.51a5.39,5.39,0,0,1-4.45-4.62,16.08,16.08,0,0,1-.17-2.5q0-45.25,0-90.52c0-4.52,1.32-7,4.32-8,3.18-1.07,6.32.27,8.9,3.8l58.84,80.63c.36.5.74,1,1.11,1.48.69-.34.39-.87.36-1.29-2.29-26.5-1.1-53.06-1.36-79.59,0-3.12,2.5-5.22,6-5.25s5.86,1.95,6.06,5c0,.56,0,1.12,0,1.68v90.31c0,4.39-1.37,6.73-4.55,7.8a8.41,8.41,0,0,1-9.9-3.33L679,343.5c-.24-.33-.51-.63-.77-.95Z" transform="translate(-76.91 -285.51)" fill="#18293d"/><path d="M532.11,389c5.79,6.4,11.33,12.54,16.87,18.68l8.54,9.46c2.62,2.91,2.77,6.1.4,8.32-2.54,2.39-6.19,2-8.83-.9Q534,407.79,518.93,391a3.87,3.87,0,0,0-3.2-1.48q-13.38.11-26.75,0c-1.57,0-2,.41-2,2,.07,9.62.05,19.23,0,28.85,0,3.92-2.14,6.18-5.73,6.22s-5.84-2.07-5.84-5.76q0-29.58,0-59.16,0-16.61,0-33.23c0-3.9,1.92-6,5.83-6,13.8,0,27.6-.11,41.39.13a43.29,43.29,0,0,1,20.18,5.3c12.91,7.07,18.83,19.92,16.91,34.43s-10.52,23.05-25.72,26.26C533.52,388.62,533,388.77,532.11,389ZM487,356.1c0,7,.06,14.08,0,21.11,0,1.67.48,2.08,2.1,2.07,9.89-.08,19.79-.06,29.68,0a50.9,50.9,0,0,0,9.55-.81c6-1.13,11.56-3.25,15.59-8.1,6.44-7.77,5.78-20.15-1.45-28-6.2-6.69-14.26-8.91-23-9-10.24-.15-20.48,0-30.72-.06-1.36,0-1.74.35-1.73,1.72C487.07,342,487,349.07,487,356.1Z" transform="translate(-76.91 -285.51)" fill="#18293d"/><path d="M573,374V330c0-4.6,2.75-7.52,7.35-7.52q33.24-.06,66.49,0c3.3,0,5.24,2,5.21,5.22S650,333,646.57,333c-19.86,0-39.73,0-59.59,0-2,0-2.57.42-2.55,2.48.11,10.53.09,21.05,0,31.58,0,1.81.34,2.43,2.33,2.42,18.82-.09,37.64-.05,56.46-.05,3.65,0,5.71,2.19,5.5,5.79a4.57,4.57,0,0,1-4.83,4.66c-4.67,0-9.34,0-14,0-14.43,0-28.86,0-43.29,0-1.79,0-2.17.53-2.16,2.22q.12,15.38,0,30.74c0,1.7.34,2.19,2.13,2.18,19.87-.07,39.73,0,59.6,0,3.86,0,6.29,2.47,6.06,6.09a4.81,4.81,0,0,1-4.25,4.68,10.67,10.67,0,0,1-1.88.1H580.86c-4.07,0-6.66-1.81-7.66-5.17a9,9,0,0,1-.22-2.69Q573,395.91,573,374Z" transform="translate(-76.91 -285.51)" fill="#18293d"/><path d="M413.34,319.83c2.19,0,3.79,1.4,4.9,3.64q7.38,14.94,14.81,29.87,16.32,32.85,32.63,65.69c1.44,2.91.66,5.4-2.12,6.87-3.23,1.71-7.05.86-8.56-2.09-2.84-5.56-5.56-11.19-8.32-16.79-1.17-2.37-2.34-4.74-3.44-7.13a2.09,2.09,0,0,0-2.19-1.44q-28.21.06-56.43,0a2.25,2.25,0,0,0-2.3,1.6q-5.83,11.77-11.74,23.5c-1.74,3.46-5,4.43-8.39,2.54-2.86-1.62-3.64-4.32-2.07-7.5,4.42-9,8.89-17.92,13.33-26.88q16.94-34.15,33.84-68.34C408.48,320.94,410.27,319.81,413.34,319.83ZM388,388h49.47l-24.66-50.68C404.45,354.43,396.26,371.15,388,388Z" transform="translate(-76.91 -285.51)" fill="#18293d"/><path d="M809.27,378.59q0,21.54,0,43.08a5.76,5.76,0,0,1-5.51,5.95,5.61,5.61,0,0,1-6.15-4.74,20.32,20.32,0,0,1-.11-2.92q0-41.93,0-83.85c0-2-.47-2.53-2.49-2.51-10.87.12-21.75.07-32.62,0a5.22,5.22,0,0,1-5.55-4.84,5.39,5.39,0,0,1,3.74-6.19,10.58,10.58,0,0,1,2.7-.25q40.14,0,80.3,0c4.68,0,7.46,3.06,6.48,7-.68,2.73-2.74,4.26-5.9,4.26-10.88,0-21.75.05-32.63,0-1.8,0-2.43.31-2.42,2.31.1,14.22.05,28.44.05,42.66Z" transform="translate(-76.91 -285.51)" fill="#18293d"/><path d="M338,378.46q0,21.53,0,43.05a5.74,5.74,0,0,1-5.74,6.11,5.55,5.55,0,0,1-5.89-4.8,15.34,15.34,0,0,1-.14-2.71q0-42.12,0-84.23c0-1.81-.38-2.29-2.24-2.27-10.94.1-21.88.06-32.82,0a5.24,5.24,0,0,1-5.58-5c-.26-3.15,1.53-5.68,4.38-6.14a13.47,13.47,0,0,1,2.29-.12h79.85c4.47,0,6.89,2.06,6.84,5.75,0,3.37-2.33,5.53-6,5.54-10.87,0-21.74.06-32.61,0-1.93,0-2.54.33-2.52,2.42.11,14.14.06,28.29.06,42.43Z" transform="translate(-76.91 -285.51)" fill="#18293d"/><path d="M161,483.45c-2.42-2.41-5.43-4-8.21-5.92Q115.94,452.24,79,427.08A4.26,4.26,0,0,1,76.91,423q.09-49.87,0-99.74V321c.88-.25,1.32.43,1.84.78q40.63,27.75,81.21,55.57a2.78,2.78,0,0,0,3.77,0q40.38-27.72,80.85-55.34c.61-.42,1.25-.81,1.92-1.25a4,4,0,0,1,.27,2.33q0,50.09.06,100.16a3.91,3.91,0,0,1-1.93,3.72q-40.63,27.74-81.22,55.55c-.38.26-.91.38-1,.94ZM94.26,352.59a4.41,4.41,0,0,0-.21.77c0,6.41,0,12.82,0,19.23a2.17,2.17,0,0,0,1.24,2c3.69,2.49,7.35,5,11,7.53q27.07,18.51,54.11,37a2.23,2.23,0,0,0,3.09,0c2.75-2,5.61-3.88,8.43-5.8q28.18-19.27,56.37-38.54a3,3,0,0,0,1.54-2.88c-.08-5.78,0-11.57,0-17.35,0-.52.28-1.22-.3-1.52s-1,.4-1.45.61a4.42,4.42,0,0,0-.68.48q-31.89,21.81-63.75,43.65a2.43,2.43,0,0,1-3.28,0q-25.47-17.52-51-34.91Zm-.11,43.33c-.06.57-.11.82-.11,1.07,0,6.27,0,12.55,0,18.82a2.32,2.32,0,0,0,1.3,2.13q32.68,22.33,65.33,44.72a1.88,1.88,0,0,0,2.55,0q32.63-22.41,65.33-44.72a2.7,2.7,0,0,0,1.28-2.59c-.05-4.12,0-8.23,0-12.34v-7.13c-.81.5-1.28.77-1.72,1.08Q195.81,419,163.6,441.12a2.54,2.54,0,0,1-3.45-.05q-27.71-19.05-55.5-38Z" transform="translate(-76.91 -285.51)" fill="#219190"/><path d="M181.64,296.81,159.43,312q-15.5,10.61-31,21.25a2.24,2.24,0,0,1-3.07.05c-5-3.54-10-6.95-15.32-10.56l13.38-9.16q20.07-13.72,40.12-27.47a2.21,2.21,0,0,1,3.06,0c4.48,3.18,9,6.24,13.58,9.35A3.29,3.29,0,0,1,181.64,296.81Z" transform="translate(-76.91 -285.51)" fill="#18293d"/><path d="M216.9,320.59l-21.77,14.88q-15.85,10.83-31.68,21.7a2.21,2.21,0,0,1-3.07,0c-4.59-3.27-9.25-6.43-13.94-9.55-1.22-.81-1.17-1.15,0-2q26.22-17.86,52.37-35.8c.71-.49,1.25-.89,2.19-.24C206.19,313.3,211.43,316.84,216.9,320.59Z" transform="translate(-76.91 -285.51)" fill="#18293d"/></svg>